<svg xmlns="http://www.w3.org/2000/svg" viewBox="0 0 109.17 135.98"><defs><style>.cls-1{fill:#c6c8d9;}.cls-2{fill:#7386b3;}.cls-3{fill:#353673;}.cls-4{fill:#2d2659;}</style></defs><title>Fichier 12</title><g id="Calque_2" data-name="Calque 2"><g id="Calque_1-2" data-name="Calque 1"><polygon class="cls-1" points="0 107.82 54.59 94.53 54.59 0 0 107.82"/><polygon class="cls-2" points="54.59 0 54.59 94.53 109.17 107.82 54.59 0"/><polygon class="cls-3" points="0 111.39 54.59 135.98 54.59 98.11 0 111.39"/><polygon class="cls-4" points="109.17 111.39 54.59 135.98 54.59 98.11 109.17 111.39"/><path class="cls-4" d="M10.74,63.43s-11.2,6.41-7,10.25c3.89,3.56,20.06,6.75,45.69,0,37.08-9.69,49.8-22,53-26.94s-18.54-2.91-18.54-2.91l-.19.4s18.37-1,16.73,1.43c-5.82,8.76-35.54,19.74-49.71,24.2s-32.28,6-40.06,4.51C3.08,73,6.09,69,7.7,67.26l3.19-3.45Z"/></g></g></svg>