<?xml version="1.0"?>
<svg xmlns="http://www.w3.org/2000/svg" xmlns:xlink="http://www.w3.org/1999/xlink" xmlns:svgjs="http://svgjs.com/svgjs" version="1.1" width="512" height="512" x="0" y="0" viewBox="0 0 512 512" style="enable-background:new 0 0 512 512" xml:space="preserve" class=""><g>
<path xmlns="http://www.w3.org/2000/svg" style="" d="M256,0l-20.016,231L256,512l0,0c133.682-38.049,225.896-160.171,225.896-299.163V64.295  C349.154,64.295,256,0,256,0z" fill="#f99746" data-original="#f1cb30" class=""/>
<path xmlns="http://www.w3.org/2000/svg" style="" d="M30.104,64.295v148.543C30.104,351.829,122.318,473.951,256,512l0,0V0  C256,0,162.848,64.295,30.104,64.295z" fill="#ea702a" data-original="#f9eb97" class=""/>
<path xmlns="http://www.w3.org/2000/svg" style="" d="M256,73.882l-20.016,162.793L256,444.503c44.549-16.291,82.937-44.705,111.81-82.944  c32.608-43.183,49.843-94.611,49.843-148.722v-88.645C346.913,114.643,290.333,91.299,256,73.882z" fill="#353673" data-original="#da1716" class=""/>
<path xmlns="http://www.w3.org/2000/svg" style="" d="M94.348,124.192v88.645c0,54.112,17.235,105.539,49.843,148.722  c28.874,38.239,67.262,66.653,111.81,82.944V73.882C221.668,91.299,165.088,114.643,94.348,124.192z" fill="#353673" data-original="#ff4847" class=""/>
<polygon xmlns="http://www.w3.org/2000/svg" style="" points="332.477,219.504 279.633,211.825 256,163.94 235.984,236.674 256,284.559 303.266,309.408   294.24,256.777 " fill="#f99746" data-original="#f1cb30" class=""/>
<polygon xmlns="http://www.w3.org/2000/svg" style="" points="232.368,211.825 179.523,219.504 217.762,256.777 208.734,309.408 256,284.559 256,163.94   " fill="#ea702a" data-original="#f9eb97" class=""/>
<g xmlns="http://www.w3.org/2000/svg">
</g>
<g xmlns="http://www.w3.org/2000/svg">
</g>
<g xmlns="http://www.w3.org/2000/svg">
</g>
<g xmlns="http://www.w3.org/2000/svg">
</g>
<g xmlns="http://www.w3.org/2000/svg">
</g>
<g xmlns="http://www.w3.org/2000/svg">
</g>
<g xmlns="http://www.w3.org/2000/svg">
</g>
<g xmlns="http://www.w3.org/2000/svg">
</g>
<g xmlns="http://www.w3.org/2000/svg">
</g>
<g xmlns="http://www.w3.org/2000/svg">
</g>
<g xmlns="http://www.w3.org/2000/svg">
</g>
<g xmlns="http://www.w3.org/2000/svg">
</g>
<g xmlns="http://www.w3.org/2000/svg">
</g>
<g xmlns="http://www.w3.org/2000/svg">
</g>
<g xmlns="http://www.w3.org/2000/svg">
</g>
</g></svg>
