<svg xmlns="http://www.w3.org/2000/svg" viewBox="0 0 564.6 467.302">
  <g id="Groupe_33" data-name="Groupe 33" transform="translate(-1277.2 -2711.698)">
    <g id="Groupe_27" data-name="Groupe 27" transform="translate(1567.011 2711.698)">
      <path id="Tracé_8" data-name="Tracé 8" d="M1332.39,992.959s77.774,14.638,99.928,134.13,71.125,139.315,71.125,139.315-4.729,47.843-77.307,43.471-109.959,13.117-109.959,13.117-89.73-48.094-78.2-121.547S1272.58,1003.8,1272.58,1003.8Z" transform="translate(-1228.654 -895.818)" fill="#f99746"/>
      <path id="Tracé_9" data-name="Tracé 9" d="M1261.943,1667.733a17.231,17.231,0,0,1-10.871,8.229,18.751,18.751,0,0,0-11.272,6.926,4.4,4.4,0,0,0,3.533,7h38.02a5.466,5.466,0,0,0,5.441-6.014c-.283-2.817-.58-6.1-.708-8.612-.281-5.491-5.78-9.911-5.78-9.911Z" transform="translate(-1229.621 -1222.588)" fill="#2c3a64"/>
      <path id="Tracé_10" data-name="Tracé 10" d="M1281.909,1457.139s9.122,5.388,24.555,2.136c0,0,54.752-209.317,47.357-225.16s-64.9,7.491-64.9,7.491l-3.44,53.514Z" transform="translate(-1250.503 -1010.334)" fill="#35488b"/>
      <path id="Tracé_11" data-name="Tracé 11" d="M1370.554,1278.6l-16.323-26.87-32.292,5.02,34.111,91.3Z" transform="translate(-1269.956 -1021.577)" fill="#2c3a64"/>
      <path id="Tracé_12" data-name="Tracé 12" d="M1270.01,1017.9c-2.633-3.521-11.032,1.257-11.032,1.257-9.79,13.292-35.812,50.093-38.134,74.672-1.361,14.417,38.165,39.5,38.165,39.5l2.034-8.959s-16.748-32.773-13.25-37.7,26.98-35.756,26.98-35.756S1277.754,1028.259,1270.01,1017.9Z" transform="translate(-1220.81 -907.311)" fill="#ffb27d"/>
      <path id="Tracé_13" data-name="Tracé 13" d="M1452.911,1667.733a17.229,17.229,0,0,1-10.871,8.229,18.75,18.75,0,0,0-11.272,6.926,4.4,4.4,0,0,0,3.533,7h38.02a5.466,5.466,0,0,0,5.44-6.014c-.283-2.817-.579-6.1-.708-8.612-.281-5.491-5.781-9.911-5.781-9.911Z" transform="translate(-1322.428 -1222.588)" fill="#2c3a64"/>
      <path id="Tracé_14" data-name="Tracé 14" d="M1359.165,1240.354s52.812,197.088,54.431,216.375c0,0,10.3,5.284,27.024-4.05,0,0,1.557-206.8-23.141-223.261S1359.165,1240.354,1359.165,1240.354Z" transform="translate(-1288.047 -1008.174)" fill="#35488b"/>
      <path id="Tracé_15" data-name="Tracé 15" d="M1346.9,961.953l32.427,16.573,6.5-22.5s-4.131-7.785-6-20.538a85.626,85.626,0,0,1-.671-18.518l-26.42,13.528a50.1,50.1,0,0,1,1.052,6.048,43.979,43.979,0,0,1-.457,14.137A19.571,19.571,0,0,1,1346.9,961.953Z" transform="translate(-1282.086 -858.891)" fill="#ffb27d"/>
      <path id="Tracé_16" data-name="Tracé 16" d="M1295.548,1117.046s59.141,19.585,95.871,2.235c1.546-.73,1.52-26.827,1.52-26.827l3.591-29.807,2.04-17,8.308-33.473c-10.114-11.535-31.879-19.666-46.011-19.236-4.927,5.05-14.659,12.476-25.543,11.058-8.181-1.071-9.437-5.4-9.295-10.061a68.176,68.176,0,0,0-28.653,11.962S1298.352,1092.523,1295.548,1117.046Z" transform="translate(-1257.131 -895.803)" fill="#35488b"/>
      <path id="Tracé_17" data-name="Tracé 17" d="M1359.4,968.2c15.024-.4,26.5-15.2,26.5-15.2l-26.039,1.059A43.976,43.976,0,0,1,1359.4,968.2Z" transform="translate(-1288.164 -876.399)" fill="#ea9c68"/>
      <g id="Groupe_14" data-name="Groupe 14" transform="translate(52.002 0)">
        <path id="Tracé_18" data-name="Tracé 18" d="M1334.979,907.546s29.967,7.912,40.3-15.918c11.156-25.718-1.082-44.455-11.259-45.719-20.294-2.52-32.081,5.218-35.647,13.4S1318.444,903.328,1334.979,907.546Z" transform="translate(-1323.029 -824.12)" fill="#ffb27d"/>
        <path id="Tracé_19" data-name="Tracé 19" d="M1354.059,936.585s-1.254,3.091-9.159,1.356c0,0-6.637-1.455-5.884-4.95C1339.016,932.991,1345.9,931.493,1354.059,936.585Z" transform="translate(-1330.229 -866.575)" fill="#fff"/>
        <g id="Groupe_13" data-name="Groupe 13">
          <path id="Tracé_20" data-name="Tracé 20" d="M1368.883,879.822s3.515-10.314,3.094-15.819c0,0,7.821-9.972,3.264-12.44s-7.015,3.432-8.06,2.274-2.674-20.753-8.207-20.134-26.006,6.964-34.98-.776,12.8-37.98,49.7-26.3S1403.056,859.335,1368.883,879.822Z" transform="translate(-1321.978 -803.977)" fill="#2c3a64"/>
          <path id="Tracé_21" data-name="Tracé 21" d="M1455.487,832.356s1.672-4.985-.123-8.546c0,0-.088,4.9-2.015,7.087S1455.487,832.356,1455.487,832.356Z" transform="translate(-1385.57 -813.615)" fill="#2c3a64"/>
          <path id="Tracé_22" data-name="Tracé 22" d="M1456.5,833.629s4.565-.518,6.72,2.993a5.869,5.869,0,0,0-6.466.13Z" transform="translate(-1387.354 -818.374)" fill="#2c3a64"/>
        </g>
      </g>
      <path id="Tracé_23" data-name="Tracé 23" d="M1481.332,1027.691a8.105,8.105,0,0,1,12.732.93c9.064,13.411,29.481,45.886,31.692,69.3,1.362,14.417-42.945,38.319-42.945,38.319l-4.277-9.752s23.771-30.793,20.273-35.72c-2.2-3.093-12.266-16.392-19.46-25.866a27.783,27.783,0,0,1-4.261-25.808A33.742,33.742,0,0,1,1481.332,1027.691Z" transform="translate(-1343.664 -911.404)" fill="#ffb27d"/>
      <path id="Tracé_24" data-name="Tracé 24" d="M1393.76,1234.394s-42.7,12.569-98.212,0v10.028s52.943,19.377,98.212.722Z" transform="translate(-1257.131 -1013.151)" fill="#c4453b"/>
      <path id="Tracé_25" data-name="Tracé 25" d="M1459.76,1218.012s-13.8-7.737-17.877-3.267S1431,1231.191,1438,1230.255s11.465-3.461,13.409-2.684,7.385,6.024,12.631.194S1459.76,1218.012,1459.76,1218.012Z" transform="translate(-1324.891 -1002.926)" fill="#ffb27d"/>
      <path id="Tracé_26" data-name="Tracé 26" d="M1293.147,1216.479s13.8-7.737,17.876-3.267,10.883,16.446,3.887,15.51-11.465-3.461-13.409-2.684-7.385,6.024-12.631.194S1293.147,1216.479,1293.147,1216.479Z" transform="translate(-1253.119 -1002.181)" fill="#ffb27d"/>
      <path id="Tracé_27" data-name="Tracé 27" d="M1358.553,1045.777l-4.905,15.095h-15.871l12.84,9.329-4.9,15.094,12.841-9.329,12.841,9.329-4.9-15.094,12.84-9.329h-15.872Z" transform="translate(-1277.653 -921.487)" fill="#f99746"/>
      <path id="Tracé_28" data-name="Tracé 28" d="M1286.742,1017.571s4.1,1.371,6.2,14.777,16.649-31.169,16.649-31.169S1292.259,1006.16,1286.742,1017.571Z" transform="translate(-1252.851 -899.813)" fill="#35488b"/>
      <path id="Tracé_29" data-name="Tracé 29" d="M1416.087,989.489s-14.086,13.223-40.644,10.3c0,0,19.1-20.061,26.966-18.749S1416.087,989.489,1416.087,989.489Z" transform="translate(-1295.958 -889.995)" fill="#f99746"/>
      <path id="Tracé_30" data-name="Tracé 30" d="M1345.356,983.877s.882,13.009,9.662,16.6c0,0-15.836,1.381-23.835-8.359C1331.184,992.116,1339.982,978.237,1345.356,983.877Z" transform="translate(-1274.449 -890.75)" fill="#f99746"/>
      <circle id="Ellipse_1" data-name="Ellipse 1" cx="4.318" cy="4.318" r="4.318" transform="translate(75.166 105.407)" fill="#c4453b"/>
    </g>
    <g id="Groupe_28" data-name="Groupe 28" transform="translate(1277.2 2735)">
      <path id="Tracé_112" data-name="Tracé 112" d="M458.319,934.4s-19.387,2.57-24.472,15.746-10.945,104.417,0,116.491c0,0,.7-11.388,1.663-13.772,0,0,2.151,23.209,13.115,27.932s52.842-69.26,52.842-69.26S511.712,930.268,458.319,934.4Z" transform="translate(-363.49 -934.247)" fill="#2c3a64"/>
      <path id="Tracé_113" data-name="Tracé 113" d="M384.1,1092.25s-26.574-5.841-50.267,27.828-13.1,94.883-27.83,121.535-21.041,68.736-21.041,68.736,58.078-7.014,83.748,11.924,67.752,0,67.752,0,33.514-218.09-25.127-232.043Z" transform="translate(-284.963 -1020.093)" fill="#7ca8f4"/>
      <path id="Tracé_114" data-name="Tracé 114" d="M560.748,1109.571c1.829-3.656,9.549-7.241,12.644-4.569,9.534,8.23,26.208,30.055,32.63,47.195,3.953,10.551-22.8,44.787-22.8,44.787l-4.4-4.054s13.29-33.279,10.522-39.046c-1.277-2.661-14.805-16.168-22.134-21.822-5.7-4.4-9.321-5.469-8.834-12.654A26.258,26.258,0,0,1,560.748,1109.571Z" transform="translate(-435.414 -1027.712)" fill="#ffb27d"/>
      <path id="Tracé_115" data-name="Tracé 115" d="M546.885,1309.7s3.939,18.242,3.318,22.727c-2.17,15.717-2.942,55.67-6.772,88.974-2.885,25.078-4.919,46.865-4.124,52.883l-11.574-1.4-.154-.023s-.033-.112-.089-.323v-.009c-.009-.047-.023-.093-.037-.145-.837-3.339-5.878-23.535-9.413-42.445q-.372-1.985-.72-3.943c-1.964-11.11-3.25-21.314-2.656-26.766a56.4,56.4,0,0,0-.229-9.951c-2.1-24.273-12.107-73.359.734-78.344C530.211,1305.106,546.885,1309.7,546.885,1309.7Z" transform="translate(-408.119 -1139.934)" fill="#35488b"/>
      <path id="Tracé_116" data-name="Tracé 116" d="M555.214,1670.579s2.787,5.117,8.1,6.306a13.3,13.3,0,0,1,7.971,4.96,3.12,3.12,0,0,1-2.536,4.955l-26.981-.154a3.879,3.879,0,0,1-3.836-4.291c.213-2,.436-4.324.537-6.109.222-3.9,4.442-7.395,4.442-7.395s3.7,2.125,5.132,2.375A19.112,19.112,0,0,0,555.214,1670.579Z" transform="translate(-424.173 -1338.543)" fill="#2c3a64"/>
      <path id="Tracé_117" data-name="Tracé 117" d="M546.885,1295.275s3.35,4.3,3.318,30.161l-35.769,56.848c-2.1-24.273-12.107-73.359.734-78.344A188.866,188.866,0,0,1,546.885,1295.275Z" transform="translate(-408.119 -1132.942)" fill="#2c3a64"/>
      <path id="Tracé_118" data-name="Tracé 118" d="M470.861,1310.754s-26.282,70.085-42.045,110.686c-.128.33-.258.654-.38.976-9.021,23.265-15.425,42.291-16.184,48.207l-11.99.948s.481-33.215,2.533-55.95l.007-.029.1-1.068c.929-9.908,2.209-18.6,3.965-23.167,5.827-15.109,7.569-63.691,26.118-89.721C442.346,1288.5,470.861,1310.754,470.861,1310.754Z" transform="translate(-348.418 -1134.158)" fill="#35488b"/>
      <path id="Tracé_119" data-name="Tracé 119" d="M512.381,958.15c-.19-.314-8.079-12.789-22.826-15.278a21.811,21.811,0,0,0-24.967,18.4c-1.847,12.034.036,27.628,19.671,33.246Z" transform="translate(-383.517 -938.83)" fill="#2c3a64"/>
      <g id="Groupe_21" data-name="Groupe 21" transform="translate(91.627 15.898)">
        <path id="Tracé_120" data-name="Tracé 120" d="M529.454,1059.264l-22.218,13.2-5.616-15.64a48.949,48.949,0,0,0,3.324-14.816,60.788,60.788,0,0,0-.359-13.145l19.321,8.39a35.57,35.57,0,0,0-.473,4.331,31.2,31.2,0,0,0,.961,9.992A13.885,13.885,0,0,0,529.454,1059.264Z" transform="translate(-495.829 -1002.217)" fill="#ffb27d"/>
        <path id="Tracé_121" data-name="Tracé 121" d="M528.462,1067.146c-10.658.392-19.45-9.569-19.45-9.569l18.489-.423A31.2,31.2,0,0,0,528.462,1067.146Z" transform="translate(-499.898 -1017.788)" fill="#ea9c68"/>
        <path id="Tracé_122" data-name="Tracé 122" d="M522.09,1012.706s-20.867,6.954-29.262-9.457c-9.059-17.711-1.236-31.532,5.915-32.886,14.259-2.7,22.956,2.25,25.849,7.882S533.611,1008.973,522.09,1012.706Z" transform="translate(-488.742 -969.604)" fill="#ffb27d"/>
        <path id="Tracé_123" data-name="Tracé 123" d="M542.852,1041.507s1.027,2.132,6.548.547c0,0,4.635-1.33,3.944-3.77C553.344,1038.284,548.4,1037.533,542.852,1041.507Z" transform="translate(-518.522 -1007.371)" fill="#fff"/>
      </g>
      <path id="Tracé_124" data-name="Tracé 124" d="M454.07,1194.6l-.132-77.1-1.433-10.557a12.517,12.517,0,0,1,7.541-13.2c4.75-1.961,8.219-2.413,14.252-3.695,3.7,3.393,10.935,8.22,18.551,6.711,5.731-1.131,6.862-4.223,6.56-7.54,1.508.151,2.79.3,4.072.452a16.961,16.961,0,0,1,14.4,14.1c1.885,11.613,2.619,56.034,3.824,89.543C522.451,1213.94,451.356,1205.985,454.07,1194.6Z" transform="translate(-377.11 -1019.54)" fill="#f99746"/>
      <path id="Tracé_125" data-name="Tracé 125" d="M502.181,964.878s1.978,19.576-16.594,26.513c-7.384,2.758-11.228-27.141,4.2-33.111s30.647,1.12,32.466,11.557.433,12.613.433,12.613S515.466,962.594,502.181,964.878Z" transform="translate(-391.826 -946.273)" fill="#2c3a64"/>
      <path id="Tracé_126" data-name="Tracé 126" d="M407.3,1670.474s2.568,5.222,7.877,6.41a13.3,13.3,0,0,1,7.971,4.96,3.12,3.12,0,0,1-2.536,4.955l-26.981-.154a3.879,3.879,0,0,1-3.836-4.291c.212-2,.436-4.324.537-6.109.222-3.9,4.442-7.395,4.442-7.395s3.7,2.125,5.132,2.375C403.017,1671.772,407.3,1670.474,407.3,1670.474Z" transform="translate(-342.647 -1338.543)" fill="#2c3a64"/>
      <path id="Tracé_127" data-name="Tracé 127" d="M432.842,1098.687c-2.3-3.08-9.651,1.1-9.651,1.1-8.564,11.627-30.955,41.015-32.986,62.516-1.191,12.611,33.013,37.361,33.013,37.361l1.779-7.837s-19.017-27.868-15.958-32.178,26.576-34.448,26.576-34.448S439.616,1107.746,432.842,1098.687Z" transform="translate(-342.868 -1024.125)" fill="#ffb27d"/>
      <path id="Tracé_128" data-name="Tracé 128" d="M462.662,1304.233s8.822-3.812,11.727-.63,8.749,10.013,3.768,9.347-8.163-2.465-9.547-1.911-5.258,4.289-8.993.139S462.662,1304.233,462.662,1304.233Z" transform="translate(-380.467 -1136.828)" fill="#ffb27d"/>
      <path id="Tracé_129" data-name="Tracé 129" d="M590.273,1297.349s-10.657-1.52-12.327,1.723-3.742,11.281.181,9.636,6.125-3.819,7.379-3.673,5.245,2.342,7.379-1.876S590.273,1297.349,590.273,1297.349Z" transform="translate(-445.073 -1133.887)" fill="#ffb27d"/>
      <path id="Tracé_130" data-name="Tracé 130" d="M447.323,1094.722s-18.763,2.889-29.752,27.049c0,0,4.957,19.25,26.109,18l14.5-20.692Z" transform="translate(-357.945 -1022.566)" fill="#f99746"/>
      <path id="Tracé_131" data-name="Tracé 131" d="M568.514,1091.543s11.436,1.473,18.216,10.007a61.038,61.038,0,0,1,9.469,16.483s.585,19.874-18.705,21.744S568.514,1091.543,568.514,1091.543Z" transform="translate(-439.503 -1020.816)" fill="#f99746"/>
      <path id="Tracé_132" data-name="Tracé 132" d="M539.934,1161.464l1.523-25.555-8.186,5.4L529,1125.829l1.53,24.376,6.379-5.6Z" transform="translate(-419.273 -1039.686)" fill="#fff"/>
      <path id="Tracé_133" data-name="Tracé 133" d="M496.462,1077.342s-6.995,3.677-7.743,7.813,21.7,7.993,21.7,7.993S499.927,1077.084,496.462,1077.342Z" transform="translate(-397.092 -1012.999)" fill="#7ca8f4"/>
      <path id="Tracé_134" data-name="Tracé 134" d="M544.176,1081.326,537,1095.241s15.763-5.007,13.048-10.013C547.128,1079.848,544.176,1081.326,544.176,1081.326Z" transform="translate(-423.671 -1015.091)" fill="#7ca8f4"/>
      <path id="Tracé_135" data-name="Tracé 135" d="M529.428,1105.994a3.4,3.4,0,1,1,3.4,3.4A3.4,3.4,0,0,1,529.428,1105.994Z" transform="translate(-419.506 -1026.897)" fill="#fff"/>
    </g>
  </g>
</svg>
