<?xml version="1.0" encoding="UTF-8" standalone="no"?>
<svg
   xmlns:dc="http://purl.org/dc/elements/1.1/"
   xmlns:cc="http://creativecommons.org/ns#"
   xmlns:rdf="http://www.w3.org/1999/02/22-rdf-syntax-ns#"
   xmlns:svg="http://www.w3.org/2000/svg"
   xmlns="http://www.w3.org/2000/svg"
   xmlns:sodipodi="http://sodipodi.sourceforge.net/DTD/sodipodi-0.dtd"
   xmlns:inkscape="http://www.inkscape.org/namespaces/inkscape"
   version="1.1"
   id="svg2"
   xml:space="preserve"
   width="4266.6665"
   height="2666.6667"
   viewBox="0 0 4266.6665 2666.6667"
   sodipodi:docname="7015.eps"><metadata
     id="metadata8"><rdf:RDF><cc:Work
         rdf:about=""><dc:format>image/svg+xml</dc:format><dc:type
           rdf:resource="http://purl.org/dc/dcmitype/StillImage" /></cc:Work></rdf:RDF></metadata><defs
     id="defs6" /><sodipodi:namedview
     pagecolor="#ffffff"
     bordercolor="#666666"
     borderopacity="1"
     objecttolerance="10"
     gridtolerance="10"
     guidetolerance="10"
     inkscape:pageopacity="0"
     inkscape:pageshadow="2"
     inkscape:window-width="640"
     inkscape:window-height="480"
     id="namedview4" /><g
     id="g10"
     inkscape:groupmode="layer"
     inkscape:label="ink_ext_XXXXXX"
     transform="matrix(1.3333333,0,0,-1.3333333,0,2666.6667)"><g
       id="g12"
       transform="scale(0.1)"><path
         d="M 32000,0 H 0 V 20000 H 32000 V 0"
         style="fill:#ffffff;fill-opacity:1;fill-rule:nonzero;stroke:none"
         id="path14" /><path
         d="m 29696,2975.4 c -2.4,-13.8 -4.8,-27.6 -7.4,-41.5 H 2912.5 c 0,0 -891.47,1931.9 -891.47,4531.4 0,673.8 59.88,1392.4 210.73,2133.9 106.45,523.4 258.19,1058.3 466.24,1596.8 1068.62,2766.5 4603.2,3661.5 7353.2,3199.9 1429.6,-240 3357.1,-1066.4 5495.8,1317.1 2888.8,3219.3 11734.9,2861.2 11426.5,-3527.6 -6,-122.3 -15.2,-246.7 -27.9,-373.3 -6.7,-66.4 -14.3,-133.6 -22.8,-201.3 -15.6,-122.3 -34.3,-246.8 -56.3,-373.2 -40.4,-232.8 -91.8,-472.7 -154.9,-719.4 -831.6,-3254.4 2419.9,-3324.8 2984.4,-5871.1 102.7,-463.7 116.3,-1009.5 0,-1671.7"
         style="fill:#ebf3fa;fill-opacity:1;fill-rule:nonzero;stroke:none"
         id="path16" /><path
         d="M 29696,4647.1 V 2975.4 c -2.4,-13.8 -4.8,-27.6 -7.4,-41.5 H 2912.5 c 0,0 -891.47,1931.9 -891.47,4531.4 0,673.8 59.88,1392.4 210.73,2133.9 h 672.69 V 11102 H 4666.63 V 9826.3 h 538.23 v 2359.1 h 116.99 v 164.9 h 20.95 v -164.9 h 425.02 v 164.9 h 21.06 v -164.9 h 601.89 v 164.9 h 21.05 v -164.9 h 378.75 v 164.9 h 21.05 v -164.9 h 155.42 V 9983.3 h 594.74 v 356.2 l 701.59,-3.2 v 577.2 h 141.11 v 114.2 h 18.67 v -114.2 h 541.71 v -0.1 h 108.45 v 114.3 h 18.66 v -114.3 h 130.59 V 9765.6 h 835.14 v -422.4 h 464.3 v 245.3 h 430.7 v 973.7 h 214.5 v 454.3 h 32.4 v -454.3 h 514.7 v 851.5 h 50.5 v -851.5 h 340.4 v 11.9 h -0.5 v 108 h 0.5 v 102.3 h -0.5 v 170.1 h 0.5 v 108.7 h -0.5 v 170.2 h 0.5 v 108.6 h -0.5 v 170.2 h 0.5 v 117.4 h -0.5 v 170.1 h 0.5 v 149.5 h -0.5 v 170.2 h 0.5 v 112.7 h 101.5 v 127.4 h 16.3 v -127.4 h 751.4 v 127.4 h 16.2 v -127.4 h 137.1 V 11342 l 96.6,-0.6 v 0.6 h -0.8 v 170.2 h 0.8 v 117.4 h -0.8 v 170.1 h 0.8 v 117.1 h -0.8 v 170.1 h 0.8 v 0.5 h 911.2 v -0.5 h 156.7 c 8,-4.6 16.2,-9 24.3,-13.5 V 11102 h 666.2 V 9826.3 h 538.1 v 2359.1 h 117.1 v 164.9 h 21 v -164.9 h 425 v 164.9 h 21 v -164.9 h 601.8 v 164.9 h 21.1 v -164.9 h 378.7 v 164.9 h 21.1 v -164.9 h 155.5 V 9983.3 h 594.7 v 356.2 l 701.6,-3.2 v 577.2 h 141.1 v 114.2 h 18.7 v -114.2 h 541.8 v -0.1 h 108.2 v 114.3 h 18.7 v -114.3 h 130.6 V 9765.6 h 835.3 v -422.4 h 464.2 v 245.3 h 430.6 v 973.7 h 214.7 v 454.3 h 32.5 v -454.3 h 514.5 v 851.5 h 50.5 v -851.5 h 340.4 v 11.9 h -0.6 v 108 h 0.6 v 102.3 h -0.6 v 170.1 h 0.6 v 108.7 h -0.6 v 170.2 h 0.6 v 108.6 h -0.6 v 170.2 h 0.6 v 117.4 h -0.6 v 170.1 h 0.6 v 149.5 h -0.6 v 170.2 h 0.6 v 112.7 h 101.5 v 127.4 h 16.3 v -127.4 h 751.4 v 127.4 h 16.3 v -127.4 h 137 V 11342 l 95.2,-0.6 h 1.4 v 0.6 h -0.8 v 170.2 h 0.8 v 117.4 h -0.8 v 170.1 h 0.8 v 117.1 h -0.8 v 170.1 h 0.8 v 0.5 h 911.3 v -0.5 h 156.5 c 8.2,-4.6 16.2,-9 24.4,-13.5 V 11102 h 1118.2 V 9826.2 h 538.2 v 2359.2 h 117 v 164.9 h 21 v -164.9 h 425 v 164.9 h 21 v -164.9 h 100.6 c -6,-122.3 -15.2,-246.7 -27.9,-373.3 -6.7,-66.4 -14.3,-133.6 -22.8,-201.3 -15.6,-122.3 -34.3,-246.8 -56.3,-373.2 -40.4,-232.8 -91.8,-472.7 -154.9,-719.4 C 25880,7263.8 29131.5,7193.4 29696,4647.1"
         style="fill:#d5e5fb;fill-opacity:1;fill-rule:nonzero;stroke:none"
         id="path18" /><path
         d="m 17283.3,11812.1 h -1344.5 v 373.3 h 1344.5 v -373.3"
         style="fill:#e2eefd;fill-opacity:1;fill-rule:nonzero;stroke:none"
         id="path20" /><path
         d="m 17283.3,11237.6 h -1344.5 v 373.3 h 1344.5 v -373.3"
         style="fill:#e2eefd;fill-opacity:1;fill-rule:nonzero;stroke:none"
         id="path22" /><path
         d="m 17283.3,10651.1 h -1344.5 v 373.2 h 1344.5 v -373.2"
         style="fill:#e2eefd;fill-opacity:1;fill-rule:nonzero;stroke:none"
         id="path24" /><path
         d="m 17283.3,10055.2 h -1344.5 v 373.3 h 1344.5 v -373.3"
         style="fill:#e2eefd;fill-opacity:1;fill-rule:nonzero;stroke:none"
         id="path26" /><path
         d="m 17283.3,9480.3 h -1344.5 v 373.2 h 1344.5 v -373.2"
         style="fill:#e2eefd;fill-opacity:1;fill-rule:nonzero;stroke:none"
         id="path28" /><path
         d="m 23050.4,12005.4 h -627.3 v 226.7 h 627.3 v -226.7"
         style="fill:#e2eefd;fill-opacity:1;fill-rule:nonzero;stroke:none"
         id="path30" /><path
         d="m 23050.4,11656.5 h -627.3 v 226.7 h 627.3 v -226.7"
         style="fill:#e2eefd;fill-opacity:1;fill-rule:nonzero;stroke:none"
         id="path32" /><path
         d="m 23050.4,11300.3 h -627.3 v 226.7 h 627.3 v -226.7"
         style="fill:#e2eefd;fill-opacity:1;fill-rule:nonzero;stroke:none"
         id="path34" /><path
         d="m 23050.4,10938.4 h -627.3 v 226.7 h 627.3 v -226.7"
         style="fill:#e2eefd;fill-opacity:1;fill-rule:nonzero;stroke:none"
         id="path36" /><path
         d="m 23050.4,10589.3 h -627.3 v 226.6 h 627.3 v -226.6"
         style="fill:#e2eefd;fill-opacity:1;fill-rule:nonzero;stroke:none"
         id="path38" /><path
         d="m 23050.4,10205 h -627.3 v 226.7 h 627.3 V 10205"
         style="fill:#e2eefd;fill-opacity:1;fill-rule:nonzero;stroke:none"
         id="path40" /><path
         d="m 23050.4,9856.1 h -627.3 v 226.7 h 627.3 v -226.7"
         style="fill:#e2eefd;fill-opacity:1;fill-rule:nonzero;stroke:none"
         id="path42" /><path
         d="m 23050.4,9499.9 h -627.3 v 226.7 h 627.3 v -226.7"
         style="fill:#e2eefd;fill-opacity:1;fill-rule:nonzero;stroke:none"
         id="path44" /><path
         d="m 23050.4,9138 h -627.3 v 226.7 h 627.3 V 9138"
         style="fill:#e2eefd;fill-opacity:1;fill-rule:nonzero;stroke:none"
         id="path46" /><path
         d="m 23050.4,8788.8 h -627.3 v 226.7 h 627.3 v -226.7"
         style="fill:#e2eefd;fill-opacity:1;fill-rule:nonzero;stroke:none"
         id="path48" /><path
         d="M 24211.2,11856.8 H 23539 v 226.6 h 672.2 v -226.6"
         style="fill:#e2eefd;fill-opacity:1;fill-rule:nonzero;stroke:none"
         id="path50" /><path
         d="M 24211.2,11507.9 H 23539 v 226.6 h 672.2 v -226.6"
         style="fill:#e2eefd;fill-opacity:1;fill-rule:nonzero;stroke:none"
         id="path52" /><path
         d="M 24211.2,11151.6 H 23539 v 226.7 h 672.2 v -226.7"
         style="fill:#e2eefd;fill-opacity:1;fill-rule:nonzero;stroke:none"
         id="path54" /><path
         d="M 24211.2,10789.8 H 23539 v 226.7 h 672.2 v -226.7"
         style="fill:#e2eefd;fill-opacity:1;fill-rule:nonzero;stroke:none"
         id="path56" /><path
         d="M 24211.2,10440.6 H 23539 v 226.7 h 672.2 v -226.7"
         style="fill:#e2eefd;fill-opacity:1;fill-rule:nonzero;stroke:none"
         id="path58" /><path
         d="M 24211.2,10076.6 H 23539 v 226.7 h 672.2 v -226.7"
         style="fill:#e2eefd;fill-opacity:1;fill-rule:nonzero;stroke:none"
         id="path60" /><path
         d="M 24211.2,9727.7 H 23539 v 226.7 h 672.2 v -226.7"
         style="fill:#e2eefd;fill-opacity:1;fill-rule:nonzero;stroke:none"
         id="path62" /><path
         d="M 24211.2,9371.5 H 23539 v 226.6 h 672.2 v -226.6"
         style="fill:#e2eefd;fill-opacity:1;fill-rule:nonzero;stroke:none"
         id="path64" /><path
         d="M 24211.2,9009.6 H 23539 v 226.7 h 672.2 v -226.7"
         style="fill:#e2eefd;fill-opacity:1;fill-rule:nonzero;stroke:none"
         id="path66" /><path
         d="M 24211.2,8660.4 H 23539 v 226.7 h 672.2 v -226.7"
         style="fill:#e2eefd;fill-opacity:1;fill-rule:nonzero;stroke:none"
         id="path68" /><path
         d="M 24211.2,8260 H 23539 v 226.7 h 672.2 V 8260"
         style="fill:#e2eefd;fill-opacity:1;fill-rule:nonzero;stroke:none"
         id="path70" /><path
         d="M 24211.2,7911.1 H 23539 v 226.7 h 672.2 v -226.7"
         style="fill:#e2eefd;fill-opacity:1;fill-rule:nonzero;stroke:none"
         id="path72" /><path
         d="M 24211.2,7554.9 H 23539 v 226.6 h 672.2 v -226.6"
         style="fill:#e2eefd;fill-opacity:1;fill-rule:nonzero;stroke:none"
         id="path74" /><path
         d="M 24211.2,7193 H 23539 v 226.7 h 672.2 V 7193"
         style="fill:#e2eefd;fill-opacity:1;fill-rule:nonzero;stroke:none"
         id="path76" /><path
         d="M 24211.2,6843.8 H 23539 v 226.7 h 672.2 v -226.7"
         style="fill:#e2eefd;fill-opacity:1;fill-rule:nonzero;stroke:none"
         id="path78" /><path
         d="M 6512.21,11812.1 H 5204.84 v 373.3 h 1307.37 v -373.3"
         style="fill:#e2eefd;fill-opacity:1;fill-rule:nonzero;stroke:none"
         id="path80" /><path
         d="M 6512.21,11249.8 H 5204.84 v 373.3 h 1307.37 v -373.3"
         style="fill:#e2eefd;fill-opacity:1;fill-rule:nonzero;stroke:none"
         id="path82" /><path
         d="M 6512.21,10663.3 H 5204.84 v 373.2 h 1307.37 v -373.2"
         style="fill:#e2eefd;fill-opacity:1;fill-rule:nonzero;stroke:none"
         id="path84" /><path
         d="M 6512.21,10067.4 H 5204.84 v 373.3 h 1307.37 v -373.3"
         style="fill:#e2eefd;fill-opacity:1;fill-rule:nonzero;stroke:none"
         id="path86" /><path
         d="M 6512.21,9492.5 H 5204.84 v 373.2 h 1307.37 v -373.2"
         style="fill:#e2eefd;fill-opacity:1;fill-rule:nonzero;stroke:none"
         id="path88" /><path
         d="m 12771.2,12005.4 h -672.3 v 226.7 h 672.3 v -226.7"
         style="fill:#e2eefd;fill-opacity:1;fill-rule:nonzero;stroke:none"
         id="path90" /><path
         d="m 12771.2,11656.5 h -672.3 v 226.7 h 672.3 v -226.7"
         style="fill:#e2eefd;fill-opacity:1;fill-rule:nonzero;stroke:none"
         id="path92" /><path
         d="m 12771.2,11300.3 h -672.3 v 226.7 h 672.3 v -226.7"
         style="fill:#e2eefd;fill-opacity:1;fill-rule:nonzero;stroke:none"
         id="path94" /><path
         d="m 12771.2,10938.4 h -672.3 v 226.7 h 672.3 v -226.7"
         style="fill:#e2eefd;fill-opacity:1;fill-rule:nonzero;stroke:none"
         id="path96" /><path
         d="m 12771.2,10589.3 h -672.3 v 226.6 h 672.3 v -226.6"
         style="fill:#e2eefd;fill-opacity:1;fill-rule:nonzero;stroke:none"
         id="path98" /><path
         d="m 12771.2,10205 h -672.3 v 226.7 h 672.3 V 10205"
         style="fill:#e2eefd;fill-opacity:1;fill-rule:nonzero;stroke:none"
         id="path100" /><path
         d="m 12771.2,9856.1 h -672.3 v 226.7 h 672.3 v -226.7"
         style="fill:#e2eefd;fill-opacity:1;fill-rule:nonzero;stroke:none"
         id="path102" /><path
         d="m 12771.2,9499.9 h -672.3 v 226.7 h 672.3 v -226.7"
         style="fill:#e2eefd;fill-opacity:1;fill-rule:nonzero;stroke:none"
         id="path104" /><path
         d="m 12771.2,9138 h -672.3 v 226.7 h 672.3 V 9138"
         style="fill:#e2eefd;fill-opacity:1;fill-rule:nonzero;stroke:none"
         id="path106" /><path
         d="m 12771.2,8788.8 h -672.3 v 226.7 h 672.3 v -226.7"
         style="fill:#e2eefd;fill-opacity:1;fill-rule:nonzero;stroke:none"
         id="path108" /><path
         d="m 14001.4,11856.8 h -764.1 v 226.6 h 764.1 v -226.6"
         style="fill:#e2eefd;fill-opacity:1;fill-rule:nonzero;stroke:none"
         id="path110" /><path
         d="m 14001.4,11507.9 h -764.1 v 226.6 h 764.1 v -226.6"
         style="fill:#e2eefd;fill-opacity:1;fill-rule:nonzero;stroke:none"
         id="path112" /><path
         d="m 14001.4,11151.6 h -764.1 v 226.7 h 764.1 v -226.7"
         style="fill:#e2eefd;fill-opacity:1;fill-rule:nonzero;stroke:none"
         id="path114" /><path
         d="m 14001.4,10789.8 h -764.1 v 226.7 h 764.1 v -226.7"
         style="fill:#e2eefd;fill-opacity:1;fill-rule:nonzero;stroke:none"
         id="path116" /><path
         d="m 14001.4,10440.6 h -764.1 v 226.7 h 764.1 v -226.7"
         style="fill:#e2eefd;fill-opacity:1;fill-rule:nonzero;stroke:none"
         id="path118" /><path
         d="m 14001.4,10076.6 h -764.1 v 226.7 h 764.1 v -226.7"
         style="fill:#e2eefd;fill-opacity:1;fill-rule:nonzero;stroke:none"
         id="path120" /><path
         d="m 14001.4,9727.7 h -764.1 v 226.7 h 764.1 v -226.7"
         style="fill:#e2eefd;fill-opacity:1;fill-rule:nonzero;stroke:none"
         id="path122" /><path
         d="m 14001.4,9371.5 h -764.1 v 226.6 h 764.1 v -226.6"
         style="fill:#e2eefd;fill-opacity:1;fill-rule:nonzero;stroke:none"
         id="path124" /><path
         d="m 14001.4,9009.6 h -764.1 v 226.7 h 764.1 v -226.7"
         style="fill:#e2eefd;fill-opacity:1;fill-rule:nonzero;stroke:none"
         id="path126" /><path
         d="m 14001.4,8660.4 h -764.1 v 226.7 h 764.1 v -226.7"
         style="fill:#e2eefd;fill-opacity:1;fill-rule:nonzero;stroke:none"
         id="path128" /><path
         d="m 14001.4,8260 h -764.1 v 226.7 h 764.1 V 8260"
         style="fill:#e2eefd;fill-opacity:1;fill-rule:nonzero;stroke:none"
         id="path130" /><path
         d="m 14001.4,7911.1 h -764.1 v 226.7 h 764.1 v -226.7"
         style="fill:#e2eefd;fill-opacity:1;fill-rule:nonzero;stroke:none"
         id="path132" /><path
         d="m 14001.4,7554.9 h -764.1 v 226.6 h 764.1 v -226.6"
         style="fill:#e2eefd;fill-opacity:1;fill-rule:nonzero;stroke:none"
         id="path134" /><path
         d="m 14001.4,7193 h -764.1 v 226.7 h 764.1 V 7193"
         style="fill:#e2eefd;fill-opacity:1;fill-rule:nonzero;stroke:none"
         id="path136" /><path
         d="m 14001.4,6843.8 h -764.1 v 226.7 h 764.1 v -226.7"
         style="fill:#e2eefd;fill-opacity:1;fill-rule:nonzero;stroke:none"
         id="path138" /><path
         d="m 14226.2,10070.4 c 0,0 1513.1,-284.8 1944.1,-2609.4 431,-2324.7 1383.7,-2710.3 1383.7,-2710.3 0,0 -92,-930.8 -1504,-845.7 -1412,85 -2139.2,-255.2 -2139.2,-255.2 0,0 -1745.6,935.6 -1521.4,2364.6 224.2,1429 673.2,3845.1 673.2,3845.1 l 1163.6,210.9"
         style="fill:#f99746;fill-opacity:1;fill-rule:nonzero;stroke:none"
         id="path140" /><path
         d="m 12836.9,3300.2 c 0,0 -65.8,-128.4 -211.5,-160.1 -91.8,-20 -170.4,-67.8 -219.3,-134.8 -41.3,-56.6 -1.3,-136.2 68.8,-136.2 h 739.6 c 63,0 112.2,54.3 105.9,117 -5.5,54.8 -11.3,118.6 -13.8,167.6 -5.5,106.8 -112.5,192.8 -112.5,192.8 l -357.2,-46.3"
         style="fill:#2c3a64;fill-opacity:1;fill-rule:nonzero;stroke:none"
         id="path142" /><path
         d="m 12819.1,3267.9 c 0,0 177.5,-104.9 477.7,-41.6 0,0 1065.2,4072.2 921.3,4380.4 C 14074.2,7915 12955.5,7461 12955.5,7461 l -66.9,-1041.1 -69.5,-3152"
         style="fill:#35488b;fill-opacity:1;fill-rule:nonzero;stroke:none"
         id="path144" /><path
         d="m 14165.2,6959.9 -317.6,522.8 -628.2,-97.7 663.6,-1776.2 282.2,1351.1"
         style="fill:#2c3a64;fill-opacity:1;fill-rule:nonzero;stroke:none"
         id="path146" /><path
         d="m 13165.3,9808.7 c -51.2,68.5 -214.7,-24.4 -214.7,-24.4 -190.4,-258.6 -696.7,-974.6 -741.8,-1452.7 -26.5,-280.5 742.4,-768.6 742.4,-768.6 l 39.6,174.3 c 0,0 -325.8,637.6 -257.7,733.5 68,95.8 524.8,695.6 524.8,695.6 0,0 58,440.9 -92.6,642.3"
         style="fill:#ffb27d;fill-opacity:1;fill-rule:nonzero;stroke:none"
         id="path148" /><path
         d="m 14746.6,3300.2 c 0,0 -65.8,-128.4 -211.5,-160.1 -91.8,-20 -170.4,-67.8 -219.3,-134.8 -41.3,-56.6 -1.4,-136.2 68.7,-136.2 h 739.7 c 63,0 112.1,54.3 105.8,117 -5.5,54.8 -11.2,118.6 -13.7,167.6 -5.5,106.8 -112.5,192.8 -112.5,192.8 l -357.2,-46.3"
         style="fill:#2c3a64;fill-opacity:1;fill-rule:nonzero;stroke:none"
         id="path150" /><path
         d="m 13591.6,7443.3 c 0,0 1027.5,-3834.2 1059,-4209.5 0,0 200.4,-102.8 525.7,78.8 0,0 30.3,4023.3 -450.2,4343.5 -480.5,320.2 -1134.5,-212.8 -1134.5,-212.8"
         style="fill:#35488b;fill-opacity:1;fill-rule:nonzero;stroke:none"
         id="path152" /><path
         d="m 13469,9955.2 630.8,-322.4 126.4,437.6 c 0,0 -80.3,151.5 -116.7,399.6 -15.2,104.4 -22.7,225.8 -13,360.3 l -514,-263.2 c 0,0 12.2,-47.5 20.4,-117.7 8.8,-75.8 12.7,-178 -8.9,-275 -18.5,-83.3 -55.8,-162.9 -125,-219.2"
         style="fill:#ffb27d;fill-opacity:1;fill-rule:nonzero;stroke:none"
         id="path154" /><path
         d="m 12955.5,7656.1 c 0,0 1150.5,-381.1 1865.1,-43.5 30.1,14.2 29.6,521.9 29.6,521.9 l 69.8,579.9 39.7,330.6 161.6,651.2 c -196.7,224.4 -620.1,382.6 -895.1,374.2 -95.8,-98.2 -285.2,-242.7 -496.9,-215.1 -159.2,20.8 -183.6,105 -180.8,195.7 -332.8,-54.8 -557.4,-232.7 -557.4,-232.7 0,0 18.9,-1685.2 -35.6,-2162.2"
         style="fill:#35488b;fill-opacity:1;fill-rule:nonzero;stroke:none"
         id="path156" /><path
         d="m 13594,10174.4 c 292.3,7.8 515.5,295.6 515.5,295.6 l -506.6,-20.6 c 8.8,-75.8 12.7,-178 -8.9,-275"
         style="fill:#ea9c68;fill-opacity:1;fill-rule:nonzero;stroke:none"
         id="path158" /><path
         d="m 13452.3,10337.2 c 0,0 583,-153.9 784.1,309.7 217,500.3 -21.1,864.8 -219.1,889.4 -394.8,49.1 -624.1,-101.5 -693.5,-260.6 -69.3,-159.1 -193.2,-856.4 128.5,-938.5"
         style="fill:#ffb27d;fill-opacity:1;fill-rule:nonzero;stroke:none"
         id="path160" /><path
         d="m 13683.4,10598.2 c 0,0 -24.4,-60.1 -178.2,-26.4 0,0 -129.1,28.4 -114.5,96.3 0,0 134,29.2 292.7,-69.9"
         style="fill:#ffffff;fill-opacity:1;fill-rule:nonzero;stroke:none"
         id="path162" /><path
         d="m 14132.3,10484.7 c 0,0 68.4,200.7 60.2,307.8 0,0 152.1,194 63.5,242 -88.6,48 -136.5,-66.8 -156.8,-44.3 -20.3,22.6 -52,403.8 -159.7,391.7 -107.6,-12 -505.9,-135.4 -680.5,15.1 -174.6,150.6 249,738.9 966.8,511.7 717.9,-227.3 571.3,-1025.4 -93.5,-1424"
         style="fill:#2c3a64;fill-opacity:1;fill-rule:nonzero;stroke:none"
         id="path164" /><path
         d="m 14580,11595.6 c 0,0 32.5,97 -2.4,166.3 0,0 -1.7,-95.4 -39.2,-137.9 -37.5,-42.4 41.6,-28.4 41.6,-28.4"
         style="fill:#2c3a64;fill-opacity:1;fill-rule:nonzero;stroke:none"
         id="path166" /><path
         d="m 14565,11663.5 c 0,0 88.8,10 130.8,-58.3 0,0 -62.6,42.3 -125.8,-2.5 l -5,60.8"
         style="fill:#2c3a64;fill-opacity:1;fill-rule:nonzero;stroke:none"
         id="path168" /><path
         d="m 14886.3,9697.9 c 68.1,76.3 190.5,66.6 247.8,-18.1 176.3,-260.9 573.5,-892.7 616.5,-1348.2 26.5,-280.5 -835.5,-745.5 -835.5,-745.5 l -83.2,189.7 c 0,0 462.5,599.1 394.4,695 -42.7,60.1 -238.6,318.9 -378.5,503.2 -108.9,143.4 -141.6,331.8 -82.9,502.1 27.4,79.5 66.4,160 121.4,221.8"
         style="fill:#ffb27d;fill-opacity:1;fill-rule:nonzero;stroke:none"
         id="path170" /><path
         d="m 14866.1,7656.1 c 0,0 -830.7,-244.6 -1910.6,0 V 7461 c 0,0 1030,-377 1910.6,-14.1 v 209.2"
         style="fill:#c4453b;fill-opacity:1;fill-rule:nonzero;stroke:none"
         id="path172" /><path
         d="m 14831.9,7775.8 c 0,0 -268.4,150.6 -347.8,63.6 -79.4,-86.9 -211.7,-319.9 -75.6,-301.7 136.1,18.2 223.1,67.3 260.9,52.2 37.8,-15.1 143.7,-117.2 245.7,-3.8 102.1,113.4 -83.2,189.7 -83.2,189.7"
         style="fill:#ffb27d;fill-opacity:1;fill-rule:nonzero;stroke:none"
         id="path174" /><path
         d="m 12986.8,7791.2 c 0,0 268.4,150.5 347.8,63.5 79.4,-86.9 211.7,-319.9 75.6,-301.7 -136.1,18.2 -223,67.3 -260.8,52.2 -37.8,-15.1 -143.7,-117.2 -245.8,-3.8 -102.1,113.5 83.2,189.8 83.2,189.8"
         style="fill:#ffb27d;fill-opacity:1;fill-rule:nonzero;stroke:none"
         id="path176" /><path
         d="m 13782,9542.2 -95.5,-293.6 h -308.7 l 249.8,-181.5 -95.4,-293.7 249.8,181.5 249.8,-181.5 -95.5,293.7 249.9,181.5 h -308.8 l -95.4,293.6"
         style="fill:#f99746;fill-opacity:1;fill-rule:nonzero;stroke:none"
         id="path178" /><path
         d="m 12867.4,9669.3 c 0,0 79.9,-26.7 120.5,-287.5 40.7,-260.8 323.9,606.4 323.9,606.4 0,0 -337.1,-96.9 -444.4,-318.9"
         style="fill:#35488b;fill-opacity:1;fill-rule:nonzero;stroke:none"
         id="path180" /><path
         d="m 14545.1,10024.6 c 0,0 -274,-257.2 -790.7,-200.3 0,0 371.5,390.3 524.6,364.7 153.2,-25.5 266.1,-164.4 266.1,-164.4"
         style="fill:#f99746;fill-opacity:1;fill-rule:nonzero;stroke:none"
         id="path182" /><path
         d="m 13587.6,10148.5 c 0,0 17.1,-253.1 187.9,-322.9 0,0 -308,-26.9 -463.7,162.6 0,0 171.2,270 275.8,160.3"
         style="fill:#f99746;fill-opacity:1;fill-rule:nonzero;stroke:none"
         id="path184" /><path
         d="m 13838.4,9825.6 c 0,46.4 -37.6,84 -84,84 -46.4,0 -84,-37.6 -84,-84 0,-46.4 37.6,-84 84,-84 46.4,0 84,37.6 84,84"
         style="fill:#c4453b;fill-opacity:1;fill-rule:nonzero;stroke:none"
         id="path186" /><path
         d="m 10102,11881.6 c 0,0 662.4,-849.2 802.8,-871.6 140.3,-22.4 1081.3,-175.8 1081.3,-175.8 l 28.7,-181 c 0,0 -996.7,-157.4 -1350.6,-49.7 -353.8,107.8 -1164.71,982.9 -1164.71,982.9 l 602.51,295.2"
         style="fill:#ffb27d;fill-opacity:1;fill-rule:nonzero;stroke:none"
         id="path188" /><path
         d="m 8869.76,12015.3 c 0,0 -1762.88,-1592.4 -1382.6,-3973.3 380.29,-2380.9 1855.95,-2593 1855.95,-2593 0,0 198.03,471.4 1305.99,707.2 1107.9,235.7 1528.2,1248.4 1528.2,1248.4 0,0 -2206.33,1478.7 -1914.4,4358.3 l -1393.14,252.4"
         style="fill:#7ca8f4;fill-opacity:1;fill-rule:nonzero;stroke:none"
         id="path190" /><path
         d="m 9880.22,5250.6 c 0,0 2.2,-144.2 118.84,-237.2 73.44,-58.5 122.84,-136.1 137.04,-217.8 12,-69.1 -59.1,-122.8 -121.9,-91.8 l -663.35,327.3 c -56.48,27.9 -76.52,98.3 -43.14,151.8 29.18,46.7 62.59,101.3 86.48,144.1 52.17,93.4 186.17,123.2 186.17,123.2 l 299.86,-199.6"
         style="fill:#2c3a64;fill-opacity:1;fill-rule:nonzero;stroke:none"
         id="path192" /><path
         d="m 8301.23,11760.7 c 0,0 -847.72,-746.6 -1108.78,-1371.1 -261.07,-624.5 -275.53,-834.4 -275.53,-834.4 l 167.24,0.4 c 0,0 545.9,796.8 661.26,850.2 115.37,53.3 642.35,529.6 642.35,529.6 l -86.54,825.3"
         style="fill:#ffb27d;fill-opacity:1;fill-rule:nonzero;stroke:none"
         id="path194" /><path
         d="m 7337.21,5775.4 c 0,0 -194.02,-144.2 -243.06,-285 -30.89,-88.8 -87.77,-161 -160.15,-201.5 -61.16,-34.3 -135.4,15 -126.97,84.6 l 88.98,734.3 c 7.58,62.5 67.44,104.8 128.9,91 53.73,-12.1 116.39,-25.5 164.67,-33.8 105.39,-18.3 177.89,-134.9 177.89,-134.9 l -30.26,-254.7"
         style="fill:#2c3a64;fill-opacity:1;fill-rule:nonzero;stroke:none"
         id="path196" /><path
         d="M 10298.4,9407.5 10234,8366.2 9906.91,5230.5 c 0,0 -225.23,-30.7 -515.18,69.8 0,0 -120.61,976.4 -223.39,2012 -57.26,576.3 -109.11,1171.1 -131.41,1625.9 -20.24,407.5 -16.79,702.7 27.24,772.5 181.43,287.8 1234.23,-303.2 1234.23,-303.2"
         style="fill:#f99746;fill-opacity:1;fill-rule:nonzero;stroke:none"
         id="path198" /><path
         d="m 9784.95,11899.8 -630.84,-322.4 -126.41,437.7 c 0,0 80.37,151.4 116.71,399.5 15.21,104.3 22.75,225.8 13.06,360.3 l 513.99,-263.2 c 0,0 -12.25,-47.5 -20.46,-117.7 -8.75,-75.8 -12.66,-178 8.88,-275 18.58,-83.3 55.87,-162.9 125.07,-219.2"
         style="fill:#ffb27d;fill-opacity:1;fill-rule:nonzero;stroke:none"
         id="path200" /><path
         d="m 9659.88,12119 c -292.26,7.8 -515.47,295.6 -515.47,295.6 L 9651,12394 c -8.75,-75.8 -12.66,-178 8.88,-275"
         style="fill:#ea9c68;fill-opacity:1;fill-rule:nonzero;stroke:none"
         id="path202" /><path
         d="m 10485.7,11486.8 c -210.8,429.5 -543.61,446 -543.61,446 h 0.01 c -70.14,25.7 -149.65,48.5 -236.66,62.8 2.78,-90.7 -21.66,-174.9 -180.82,-195.7 -211.75,-27.6 -401.08,116.9 -496.92,215.1 -274.93,8.4 -698.35,-149.8 -895.12,-374.2 L 7795.35,11306 c 0,0 221.11,-516.1 526.27,-544.8 l 12.28,-102.2 69.85,-579.9 c 0,0 -0.51,-507.7 29.57,-521.9 714.58,-337.6 1865.08,43.5 1865.08,43.5 -27.6,242 -36.4,794.9 -38.3,1281 225.6,417.6 225.6,605.1 225.6,605.1"
         style="fill:#2c3a64;fill-opacity:1;fill-rule:nonzero;stroke:none"
         id="path204" /><path
         d="m 9801.66,12281.8 c 0,0 -583.01,-153.9 -784.12,309.7 -217.04,500.3 21.07,864.8 219.05,889.4 394.79,49 624.11,-101.5 693.49,-260.6 69.38,-159.1 193.22,-856.4 -128.42,-938.5"
         style="fill:#ffb27d;fill-opacity:1;fill-rule:nonzero;stroke:none"
         id="path206" /><path
         d="m 9570.54,12542.8 c 0,0 24.4,-60.1 178.19,-26.4 0,0 129.12,28.4 114.47,96.3 0,0 -134,29.2 -292.66,-69.9"
         style="fill:#ffffff;fill-opacity:1;fill-rule:nonzero;stroke:none"
         id="path208" /><path
         d="m 9121.63,12429.3 c 0,0 -68.4,200.7 -60.2,307.8 0,0 -152.15,194 -63.51,242 88.65,48 136.48,-66.8 156.8,-44.3 20.31,22.6 52.02,403.8 159.67,391.7 107.67,-12 505.93,-135.4 680.53,15.1 174.58,150.6 -248.98,738.9 -966.84,511.7 -717.85,-227.3 -571.27,-1025.4 93.55,-1424"
         style="fill:#2c3a64;fill-opacity:1;fill-rule:nonzero;stroke:none"
         id="path210" /><path
         d="m 8673.95,13540.2 c 0,0 -32.53,97 2.39,166.3 0,0 1.71,-95.4 39.18,-137.9 37.48,-42.4 -41.57,-28.4 -41.57,-28.4"
         style="fill:#2c3a64;fill-opacity:1;fill-rule:nonzero;stroke:none"
         id="path212" /><path
         d="m 8688.89,13608.1 c 0,0 -88.8,10 -130.72,-58.3 0,0 62.54,42.3 125.79,-2.5 l 4.93,60.8"
         style="fill:#2c3a64;fill-opacity:1;fill-rule:nonzero;stroke:none"
         id="path214" /><path
         d="m 9471.96,11486.8 95.42,-293.6 h 308.77 l -249.8,-181.5 95.42,-293.7 -249.81,181.5 -249.8,-181.5 95.42,293.7 -249.81,181.5 h 308.78 l 95.41,293.6"
         style="fill:#f99746;fill-opacity:1;fill-rule:nonzero;stroke:none"
         id="path216" /><path
         d="m 8708.79,11969.2 c 0,0 274.05,-257.2 790.7,-200.3 0,0 -371.5,390.3 -524.61,364.7 -153.11,-25.5 -266.09,-164.4 -266.09,-164.4"
         style="fill:#ffffff;fill-opacity:1;fill-rule:nonzero;stroke:none"
         id="path218" /><path
         d="m 9666.37,12093.1 c 0,0 -17.17,-253.1 -187.98,-322.9 0,0 308.08,-26.9 463.7,162.6 0,0 -171.17,270 -275.72,160.3"
         style="fill:#ffffff;fill-opacity:1;fill-rule:nonzero;stroke:none"
         id="path220" /><path
         d="m 9415.48,11770.2 c 0,46.4 37.61,84 84.01,84 46.4,0 84.01,-37.6 84.01,-84 0,-46.4 -37.61,-84 -84.01,-84 -46.4,0 -84.01,37.6 -84.01,84"
         style="fill:#35488b;fill-opacity:1;fill-rule:nonzero;stroke:none"
         id="path222" /><path
         d="M 10137.4,9356.1 9168.34,7312.3 c -57.26,576.3 -109.11,1171.1 -131.41,1625.9 l 178.55,564.6 921.92,-146.7"
         style="fill:#e27f34;fill-opacity:1;fill-rule:nonzero;stroke:none"
         id="path224" /><path
         d="m 9703.38,9441.9 c 0,0 -711.73,-2505.7 -1014.38,-2783.5 -302.64,-277.8 -1351.79,-883 -1351.79,-883 l -250.29,411.3 c 0,0 880.79,1014.8 921.15,1200.1 40.35,185.4 379.7,2004.7 379.7,2004.7 l 1315.61,50.4"
         style="fill:#f99746;fill-opacity:1;fill-rule:nonzero;stroke:none"
         id="path226" /><path
         d="m 8417.43,9629.1 c 0,0 801.06,-273 1880.97,-28.4 v -195.1 c 0,0 -1029.95,-377 -1910.63,-14.1 l 29.66,237.6"
         style="fill:#ffffff;fill-opacity:1;fill-rule:nonzero;stroke:none"
         id="path228" /><path
         d="m 11958.4,10819.9 c 0,0 233.4,168.9 330.8,181.3 97.4,12.3 225.8,46.9 208.9,0 -17,-46.9 -160.9,-131.6 -180.7,-165.5 -19.7,-33.8 -47.9,-76.2 -8.4,-64.9 39.5,11.3 132.6,62.1 121.3,33.9 -11.3,-28.3 -149.5,-146.8 -225.8,-158.1 -76.2,-11.3 -211.8,9.7 -211.8,9.7 l -34.3,163.6"
         style="fill:#ffb27d;fill-opacity:1;fill-rule:nonzero;stroke:none"
         id="path230" /><path
         d="m 6916.92,9555.2 c 0,0 -116.68,-263.5 -108.51,-361.3 8.16,-97.8 1.05,-230.6 43.42,-204.3 42.37,26.3 95.26,184.7 124.28,211.1 29.02,26.4 64.56,62.8 61.74,21.8 -2.83,-41 -33.16,-142.7 -7.9,-125.8 25.26,16.9 112.46,176.8 107.66,253.7 -4.8,76.9 -53.45,205.2 -53.45,205.2 l -167.24,-0.4"
         style="fill:#ffb27d;fill-opacity:1;fill-rule:nonzero;stroke:none"
         id="path232" /><path
         d="m 18697.9,12248.4 c 0,0 1706.1,-619.8 2088.3,-911.2 1131.4,-862.5 1327.2,-1969.4 2093.7,-2571.3 0,0 261,-341.1 -864.4,-864.4 -1125.4,-523.3 -1872.1,360.2 -2827.7,0 0,0 -2414,132.9 -1783.3,1763 348.6,901.1 -315.4,1672.7 552.2,2534.4 l 741.2,49.5"
         style="fill:#f99746;fill-opacity:1;fill-rule:nonzero;stroke:none"
         id="path234" /><path
         d="m 17393.6,10555.6 c -54.8,-79.7 -151.1,-173.4 -262.5,-267.5 -298.2,-252.5 -703.4,-508.5 -703.4,-508.5 0,0 -354,-9.5 -306.4,54.7 42,56.6 683.4,782.7 833.3,952.4 20,22.5 31.2,35.3 31.2,35.3 140.5,247.8 305,714.9 450.1,997.3 72.4,141 154.8,271.4 306,319.7 129.4,41.3 311.8,16.3 376.1,-151.5 133.9,-350.2 -522.7,-1138.7 -724.4,-1431.9"
         style="fill:#3e59a3;fill-opacity:1;fill-rule:nonzero;stroke:none"
         id="path236" /><path
         d="m 20786.2,9986.6 c 0,0 -350.6,150.5 -656,328.5 -154.2,89.8 -297,186.7 -377.4,274.9 -240.1,262.9 -1206.9,996.2 -1122.3,1361.5 84.6,365.3 638.8,161.7 638.8,161.7 0,0 588,-861.7 871.8,-1225.6 0,0 37.2,-33.9 96.1,-87.6 214.6,-195.6 717.6,-654.6 761.5,-699.3 55.9,-57.1 -212.5,-114.1 -212.5,-114.1"
         style="fill:#3e59a3;fill-opacity:1;fill-rule:nonzero;stroke:none"
         id="path238" /><path
         d="m 19269.3,12113.2 c -206.6,174 -1288.5,176.7 -1583.9,-2.6 -228.9,-138.9 -35.1,-814.5 103.5,-1444.6 81.3,-369.2 222.1,-909.7 222.1,-909.7 l 1566.2,75 c 0,0 -74.9,98.9 -135.7,418 -36.1,189.4 -59.5,474.7 -56.6,685 7.8,581.9 117.5,982.6 -115.6,1178.9"
         style="fill:#3e59a3;fill-opacity:1;fill-rule:nonzero;stroke:none"
         id="path240" /><path
         d="m 18057.2,9689.3 c 0,0 -1145.2,-1297.3 -1222.4,-1793.1 -32,-205.4 1626.1,-918.1 1626.1,-918.1 l 261.8,115.5 c 0,0 -1077.6,888.6 -1064.9,943.8 12.7,55.3 1594.1,982.8 1527.9,1371.7 -66.2,388.9 -1128.5,280.2 -1128.5,280.2"
         style="fill:#ffb27d;fill-opacity:1;fill-rule:nonzero;stroke:none"
         id="path242" /><path
         d="m 18274.7,9834.3 c -11.7,-83.1 1166.2,-2572.4 1166.2,-2572.4 L 20400,6195.1 c 0,0 -92.4,358.1 -139.4,792 -57.5,532 -135.1,840.8 -268.2,1029.4 -102.8,145.8 -202.7,1859.4 -737.5,2000.8 -534.7,141.4 -980.2,-183 -980.2,-183"
         style="fill:#ffb27d;fill-opacity:1;fill-rule:nonzero;stroke:none"
         id="path244" /><path
         d="m 20081.9,5975.3 c 0,0 -6.1,-181.2 -137.1,-288.3 -82.5,-67.5 -137.4,-156.3 -152.4,-249.2 -12.7,-78.6 68.8,-138.5 139.7,-102.4 l 748.1,380.8 c 63.7,32.5 85.4,112.7 46.7,172.9 -33.7,52.6 -135.1,159.9 -185.3,183.8 -136.9,64.9 -150.2,237.2 -150.2,237.2 0,0 -64.7,-225.8 -100.9,-252.7 -78.9,-58.5 -208.6,-82.1 -208.6,-82.1"
         style="fill:#2c3a64;fill-opacity:1;fill-rule:nonzero;stroke:none"
         id="path246" /><path
         d="m 18403.1,6930.8 c 0,0 186.4,-92.1 214.1,-259.1 17.4,-105.2 67.1,-197 140.2,-256.2 61.9,-50.1 154.4,-9.3 158.4,70.1 l 42.2,766.1 c 3.5,71.4 -70.6,136.9 -178,151.2 -62,8.3 -162.9,7.7 -212,-18.4 -104.7,-55.7 -169.9,27.2 -169.9,27.2 0,0 64.6,-211 69.9,-255.8 11.5,-97.5 -64.9,-225.1 -64.9,-225.1"
         style="fill:#2c3a64;fill-opacity:1;fill-rule:nonzero;stroke:none"
         id="path248" /><path
         d="m 20081.9,5975.3 -738.8,1482.8 6,255.8 c 0,0 512.8,-186.7 850,-232.6 l 221,-1345.9 c 0,0 63,-182.5 -338.2,-160.1"
         style="fill:#2c3a64;fill-opacity:1;fill-rule:nonzero;stroke:none"
         id="path250" /><path
         d="m 19187.8,9163.7 -184.7,-142.2 -484.3,-372.9 c -44.1,-1.7 -86.2,-1.6 -126.2,0.1 -667.3,30.4 -795.1,528.9 -795.1,528.9 l 473.6,796.2 1116.7,-810.1"
         style="fill:#3e59a3;fill-opacity:1;fill-rule:nonzero;stroke:none"
         id="path252" /><path
         d="m 18566.7,13727.1 c 0,0 -159.2,98.2 -356,37.6 -196.8,-60.6 -370.1,-388.9 -319.6,-718 50.5,-329.1 -234.7,-304.4 -130.1,-575.1 37.1,-96 647.7,-238.9 706.3,113.5 36.3,218.3 -161.5,250.2 -78.2,482.9 83.2,232.6 177.6,659.1 177.6,659.1"
         style="fill:#2c3a64;fill-opacity:1;fill-rule:nonzero;stroke:none"
         id="path254" /><path
         d="m 18153.2,13672.3 c 6,8 251.5,318.4 652.5,348.3 330.4,24.7 618,-233.3 634.9,-564.3 17,-332.7 -76.8,-754.6 -628.8,-851.3 l -658.6,1067.3"
         style="fill:#2c3a64;fill-opacity:1;fill-rule:nonzero;stroke:none"
         id="path256" /><path
         d="m 18197.5,12132.2 c 137.5,-213.9 446.6,-165.7 561.8,-82.8 58.7,42.3 111.9,80.1 96.7,150.9 -21.6,99.7 -47.9,254.7 -44.4,404.7 2.6,104.9 15.5,225.3 47.5,355.6 l -548.3,-172.2 c 0,0 4.1,-48.7 0.4,-118.9 -4.1,-75.8 -17.3,-176.7 -54.7,-268.3 -18.3,-44.7 -36.4,-94 -65.7,-142 -30.3,-49.6 -24.7,-78.1 6.7,-127"
         style="fill:#ffb27d;fill-opacity:1;fill-rule:nonzero;stroke:none"
         id="path258" /><path
         d="m 18285.7,12418.6 c 272.5,-39 525.3,192.8 525.3,192.8 l -473.5,61.1 c -3.9,-71.8 -16.4,-167.2 -51.8,-253.9"
         style="fill:#ed975d;fill-opacity:1;fill-rule:nonzero;stroke:none"
         id="path260" /><path
         d="m 18144.9,12584.7 c 0,0 546.2,-248.6 821,172.6 296.6,454.5 124,852 -66.1,909.2 -379.1,114.1 -629.3,4.8 -724,-139.7 -94.6,-144.5 -332.8,-807.8 -30.9,-942.1"
         style="fill:#ffb27d;fill-opacity:1;fill-rule:nonzero;stroke:none"
         id="path262" /><path
         d="m 18415.2,12802.1 c 0,0 -33.9,-55 -179.2,3.9 0,0 -121.9,49.3 -96.2,113.6 0,0 136.4,6.2 275.4,-117.5"
         style="fill:#ffffff;fill-opacity:1;fill-rule:nonzero;stroke:none"
         id="path264" /><path
         d="m 19286.7,13594.4 c 0,0 215.8,47.6 396.8,-113.5 180.9,-161 210.7,-634.9 1.7,-1009.9 -208.9,-374.9 106.5,-472.4 -132.6,-752.7 -84.8,-99.4 -802.3,0.6 -698.5,452.5 64.3,279.9 289.9,230.1 310.9,548.2 21.1,318.2 121.7,875.4 121.7,875.4"
         style="fill:#2c3a64;fill-opacity:1;fill-rule:nonzero;stroke:none"
         id="path266" /><path
         d="m 18186.2,10930.3 149.1,652.3 165.8,-195.4 220.5,356.9 -217.1,-600.3 -119,187.3 -199.3,-400.8"
         style="fill:#ffffff;fill-opacity:1;fill-rule:nonzero;stroke:none"
         id="path268" /><path
         d="m 16869.8,7788.7 c 0,0 797.3,-525.1 1591.1,-884.4 l 38.2,405.4 c 0,0 -491.1,511.1 -686.9,576.3 -195.7,65.3 -942.4,-97.3 -942.4,-97.3"
         style="fill:#2c3a64;fill-opacity:1;fill-rule:nonzero;stroke:none"
         id="path270" /><path
         d="m 19003.1,9021.5 -484.3,-372.9 c -44.1,-1.7 -86.2,-1.6 -126.2,0.1 v 0.1 c 170.8,507.1 -26.8,892.3 -31.1,900.8 l 641.6,-528.1"
         style="fill:#2c3a64;fill-opacity:1;fill-rule:nonzero;stroke:none"
         id="path272" /><path
         d="m 18071.1,9875.9 c 41.5,-27.1 719.5,-1228.6 719.5,-1228.6 0,0 506,-124 1014.3,283.2 0,0 -194.1,1018.1 -408.4,1299.8 l -1325.4,-354.4"
         style="fill:#3e59a3;fill-opacity:1;fill-rule:nonzero;stroke:none"
         id="path274" /><path
         d="m 20870.5,10175 c 0,0 270.2,-50.6 415.9,-43.5 168,8.1 192.6,-14.6 157.1,-54.5 -35.5,-40 -257.6,-139.1 -359.7,-145.1 -102.2,-5.9 135.9,-79.2 81.3,-107 -54.7,-27.7 -378.9,161.8 -378.9,161.8 l 84.3,188.3"
         style="fill:#2c3a64;fill-opacity:1;fill-rule:nonzero;stroke:none"
         id="path276" /><path
         d="m 16347,9957.5 c 0,0 -264.7,-129.3 -410.5,-123.2 -145.8,6.1 -213.8,-55 -171.5,-87.7 42.3,-32.7 278.9,-89 380.4,-75.9 101.5,13.1 -119,-103.1 -60.1,-120.2 58.9,-17.2 342.4,229.1 342.4,229.1 l -80.7,177.9"
         style="fill:#2c3a64;fill-opacity:1;fill-rule:nonzero;stroke:none"
         id="path278" /><path
         d="m 18657.4,13638.7 c 0,0 -109.8,-525.5 374.1,-766.9 192.5,-96 382.5,704.1 -19,910.3 -401.5,206.3 -834.6,57.6 -913.9,-220.4 -79.3,-277.9 -48,-340.9 -48,-340.9 0,0 252.9,517.9 606.8,417.9"
         style="fill:#2c3a64;fill-opacity:1;fill-rule:nonzero;stroke:none"
         id="path280" /><path
         d="m 17916.8,10127.3 c 0,0 326.8,-293 1524.7,122 l 84.9,-275.5 c 0,0 -682.8,-371.4 -1538.3,-139.5 l -71.3,293"
         style="fill:#ffffff;fill-opacity:1;fill-rule:nonzero;stroke:none"
         id="path282" /><path
         d="m 17131.1,10288.1 c -298.2,-252.5 -703.4,-508.5 -703.4,-508.5 0,0 -354,-9.5 -306.4,54.7 42,56.6 683.4,782.7 833.3,952.4 76.1,-110.7 162.7,-281.7 176.5,-498.6"
         style="fill:#2c3a64;fill-opacity:1;fill-rule:nonzero;stroke:none"
         id="path284" /><path
         d="m 20786.2,9986.6 c 0,0 -350.6,150.5 -656,328.5 -1,203.6 48.5,364.3 107,484.9 214.6,-195.6 717.6,-654.6 761.5,-699.3 55.9,-57.1 -212.5,-114.1 -212.5,-114.1"
         style="fill:#2c3a64;fill-opacity:1;fill-rule:nonzero;stroke:none"
         id="path286" /><path
         d="m 17812.2,7886 c 0,0 -611.1,-99 -735.1,-228.9 l -207.3,131.6 c 0,0 578.2,206.1 942.4,97.3"
         style="fill:#ffffff;fill-opacity:1;fill-rule:nonzero;stroke:none"
         id="path288" /><path
         d="m 20199.1,7481.3 c 0,0 -553.1,13.2 -750.4,39.2 l -54.3,-165.4 -51.3,103 6,255.8 850,-232.6"
         style="fill:#ffffff;fill-opacity:1;fill-rule:nonzero;stroke:none"
         id="path290" /><path
         d="m 24503.4,9408.4 c 0,0 1418.9,236.4 1609.1,-1570.8 120.3,-1142.2 -156,-1279.1 301.6,-1965.5 457.6,-686.4 598.5,-1396.4 598.5,-1396.4 0,0 -615.5,209.4 -1522.4,-101.2 -455.4,-156 -1676,-127.3 -1676,-127.3 0,0 -956.4,1259.3 -616.6,3569.6 263.9,1795.2 1305.8,1591.6 1305.8,1591.6"
         style="fill:#35488b;fill-opacity:1;fill-rule:nonzero;stroke:none"
         id="path292" /><path
         d="m 25376.9,9033.6 c 243.4,-20.8 319.6,-1196 395.9,-1362.4 76.2,-166.4 235.7,-651.7 235.7,-651.7 l -117.9,-48.5 c 0,0 -435.9,541.6 -456.7,650.8 -15.1,79.5 -243.5,860.6 -243.5,860.6 0,0 41.6,563.6 186.5,551.2"
         style="fill:#ffb27d;fill-opacity:1;fill-rule:nonzero;stroke:none"
         id="path294" /><path
         d="m 23829.2,8929.6 c -243.4,-20.8 -319.6,-1196 -395.9,-1362.4 -76.3,-166.4 -235.7,-651.7 -235.7,-651.7 l 117.8,-48.5 c 0,0 371.4,476.6 418.2,630 23.5,77.4 282.1,881.4 282.1,881.4 0,0 -41.6,563.6 -186.5,551.2"
         style="fill:#ffb27d;fill-opacity:1;fill-rule:nonzero;stroke:none"
         id="path296" /><path
         d="m 24641.4,4975.3 c 6.5,-59.9 3.2,-144.6 -6.9,-244.5 -52.8,-520.4 -291.1,-1454.6 -291.1,-1454.6 l -270.6,-32.9 c 37.4,284.6 -93.1,2471 -158.5,3513.9 -21,333.5 -35.2,550 -35.2,550 0,0 437.3,-7.4 784.4,-142.1 347.2,-134.6 -62.9,-1818.2 -22.1,-2189.8"
         style="fill:#f99746;fill-opacity:1;fill-rule:nonzero;stroke:none"
         id="path298" /><path
         d="m 24076,3296.8 c 0,0 -64.3,-118.1 -186.8,-145.5 -77.1,-17.3 -143.1,-57.9 -183.9,-114.5 -34.5,-47.8 -0.5,-114.7 58.5,-114.3 l 622.6,3.5 c 53,0.3 94.1,46.3 88.5,99 -4.9,46.1 -34.9,108.6 -57.6,143.1 -56.5,86.4 -29.9,207.7 -29.9,207.7 0,0 -112.9,-88.2 -145.8,-94 -71.8,-12.5 -165.6,15 -165.6,15"
         style="fill:#2c3a64;fill-opacity:1;fill-rule:nonzero;stroke:none"
         id="path300" /><path
         d="m 24641.4,4975.3 c 6.5,-59.9 3.2,-144.6 -6.9,-244.5 -161.2,451.1 -551.9,1544.8 -720.2,2026.4 -21,333.5 -35.2,550 -35.2,550 0,0 437.3,-7.4 784.4,-142.1 347.2,-134.6 -62.9,-1818.2 -22.1,-2189.8"
         style="fill:#e27f34;fill-opacity:1;fill-rule:nonzero;stroke:none"
         id="path302" /><path
         d="m 24450.2,9516.2 c -245.5,-99.2 -306.6,71.2 -379.3,118.9 -141.6,92.8 -145.4,191.8 -102.9,293.6 69.8,167.2 -151.9,240.3 -90,465.6 61.9,225.3 132.5,185.6 159,373.3 21.1,150.2 223.4,216.4 333.1,221.6 140.4,6.6 297.4,136.3 462.4,101 165,-35.4 195.9,-97.2 271,-110.5 75.1,-13.2 230.4,7.6 463.9,-225.3 228.1,-227.5 138.6,-317.1 165.2,-431.9 26.5,-114.9 41.9,-385.5 -59.7,-442.9 -101.6,-57.5 -155.6,-268.7 -261.8,-274 -198.8,-9.9 -222,-131.9 -344.6,-153.2 -95.1,-16.6 -137,38.4 -288.9,-39 -81.2,-41.3 -218.1,147 -327.4,102.8"
         style="fill:#2c3a64;fill-opacity:1;fill-rule:nonzero;stroke:none"
         id="path304" /><path
         d="m 24053.4,7310.7 c 0,0 1029.8,-3735 1066.3,-4112 l 253.8,105.2 c 0,0 30.8,1392.8 -92.6,1745.5 -123.5,352.8 144.6,2220.6 -224,2273.4 -368.5,52.9 -1003.5,-12.1 -1003.5,-12.1"
         style="fill:#f99746;fill-opacity:1;fill-rule:nonzero;stroke:none"
         id="path306" /><path
         d="m 25092.7,3309 c 0,0 -24.5,-127.9 -188.7,-157.7 -77.8,-14.2 -143.1,-57.9 -183.9,-114.5 -34.5,-47.8 -0.5,-114.7 58.5,-114.3 l 622.6,3.5 c 53,0.3 94.1,46.3 88.5,99 -4.9,46.1 -21.1,98.8 -50.6,143.1 -68.4,103.2 -64.3,168.5 -64.3,168.5 0,0 -85.5,-49 -118.4,-54.8 -71.8,-12.5 -163.7,27.2 -163.7,27.2"
         style="fill:#2c3a64;fill-opacity:1;fill-rule:nonzero;stroke:none"
         id="path308" /><path
         d="m 24171.4,10512.6 c 4.4,7.3 186.5,295.1 526.7,352.6 275.7,46.5 533.7,-148.3 576.1,-424.6 42.7,-277.7 -0.8,-637.5 -453.8,-767.2 l -649,839.2"
         style="fill:#2c3a64;fill-opacity:1;fill-rule:nonzero;stroke:none"
         id="path310" /><path
         d="m 24254.8,9275.2 512.7,-304.5 129.5,360.9 c 0,0 -59.4,131.5 -76.6,341.8 -7.3,88.5 -7.1,190.9 8.2,303.4 l -445.8,-193.7 c 0,0 7.8,-40.5 10.9,-99.9 3.3,-64.1 1.1,-150.2 -22.1,-230.5 -20.1,-69 -55.7,-133.9 -116.8,-177.5"
         style="fill:#ffb27d;fill-opacity:1;fill-rule:nonzero;stroke:none"
         id="path312" /><path
         d="m 24371.6,9452.7 c 245.9,-9.1 448.8,220.7 448.8,220.7 l -426.7,9.8 c 3.3,-64.1 1.1,-150.2 -22.1,-230.5"
         style="fill:#ea9c68;fill-opacity:1;fill-rule:nonzero;stroke:none"
         id="path314" /><path
         d="m 24261.2,9597 c 0,0 481.5,-160.4 675.2,218.2 209,408.7 28.5,727.7 -136.5,758.9 -329,62.3 -529.7,-51.9 -596.5,-181.9 -66.7,-129.9 -208.1,-709.1 57.8,-795.2"
         style="fill:#ffb27d;fill-opacity:1;fill-rule:nonzero;stroke:none"
         id="path316" /><path
         d="m 24469.2,9803.9 c 0,0 -23.7,-49.2 -151,-12.6 0,0 -107,30.7 -91.1,87 0,0 114.2,17.3 242.1,-74.4"
         style="fill:#ffffff;fill-opacity:1;fill-rule:nonzero;stroke:none"
         id="path318" /><path
         d="m 25221.9,7043.2 c -139.2,-132.9 -1342.8,264 -1342.8,264 28.3,616.2 0,977.6 17.8,1707.7 4.2,171.6 161.9,301.5 332,324.6 28.8,4 59.9,7.7 93.6,11 -7.1,-76.1 18.8,-147.5 151.4,-173.5 176.4,-34.5 343.2,76.7 428.9,154.1 138.1,-28.7 218.5,-39.3 328.1,-85.1 120.2,-50.3 191.9,-175.2 174.4,-304.4 l -33.1,-244.2 c 0,0 -260.4,-854.5 -251.7,-1021 15.6,-296.4 105.1,-629.7 101.4,-633.2"
         style="fill:#f99746;fill-opacity:1;fill-rule:nonzero;stroke:none"
         id="path320" /><path
         d="m 24598.5,10529.1 c 0,0 -45.6,-451.7 382.9,-611.7 170.4,-63.7 259.1,626.2 -96.9,764 -356.1,137.7 -707.2,-25.9 -749.2,-266.7 -41.9,-240.8 -10,-291 -10,-291 0,0 166.7,458.1 473.2,405.4"
         style="fill:#2c3a64;fill-opacity:1;fill-rule:nonzero;stroke:none"
         id="path322" /><path
         d="m 24996.3,8395.8 c 0,0 339.7,-38.2 662.1,155.9 0,0 -88.4,514.8 -406.5,684.5 -281.8,150.3 -291.6,-594.6 -255.6,-840.4"
         style="fill:#f99746;fill-opacity:1;fill-rule:nonzero;stroke:none"
         id="path324" /><path
         d="m 24143.6,9317.8 c -293.6,-82.7 -499.3,-514.1 -499.3,-514.1 0,0 122.6,-186.8 289.4,-204.4 166.8,-17.6 380.2,766.5 209.9,718.5"
         style="fill:#f99746;fill-opacity:1;fill-rule:nonzero;stroke:none"
         id="path326" /><path
         d="m 23197.6,6915.5 c 0,0 -171.7,-53.7 -164.7,-110 6.9,-56.4 70.3,-218.8 98,-191.1 27.7,27.8 -48.6,133.9 41.9,155.5 30.2,7.2 -52,-149 -24.2,-142.1 27.7,6.9 117.8,100.5 138.6,138.7 20.8,38.1 28.2,100.5 28.2,100.5 l -117.8,48.5"
         style="fill:#ffb27d;fill-opacity:1;fill-rule:nonzero;stroke:none"
         id="path328" /><path
         d="m 25987.1,7046.8 c 0,0 152.1,-64.6 162.1,-103.9 14.1,-55 15.2,-238 -12.5,-210.3 -27.8,27.8 -67.1,122.8 -94.9,136.7 -27.7,13.8 39.9,-96.8 12.2,-89.8 -27.7,6.9 -148.2,75.6 -156.6,118.2 -12.4,63.1 -28.2,100.6 -28.2,100.6 l 117.9,48.5"
         style="fill:#ffb27d;fill-opacity:1;fill-rule:nonzero;stroke:none"
         id="path330" /><path
         d="m 23879.1,7504.8 c 0,0 463.3,-223.6 1257.3,0 0,0 57.5,-226.6 54,-313.5 0,0 -647,-268.6 -1305.4,25.1 l -5.9,288.4"
         style="fill:#ffffff;fill-opacity:1;fill-rule:nonzero;stroke:none"
         id="path332" /><path
         d="m 24421.9,9191.4 c 0,0 393.7,228.9 444.2,228.9 50.6,0 128.2,-70.4 128.4,-109.8 0.3,-39.4 -266.5,-214.5 -572.6,-119.1"
         style="fill:#35488b;fill-opacity:1;fill-rule:nonzero;stroke:none"
         id="path334" /><path
         d="m 24347.4,9407.5 c 0,0 42.6,-111.6 74.5,-216.1 0,0 -215.7,-7.9 -193,148.1 5.4,36.4 64.1,75.3 118.5,68"
         style="fill:#35488b;fill-opacity:1;fill-rule:nonzero;stroke:none"
         id="path336" /><path
         d="m 24451.6,9272.9 9.6,-63.2 42.2,-48 -63.2,-9.6 -48,-42.2 -9.6,63.1 -42.2,48 63.2,9.7 48,42.2"
         style="fill:#ffffff;fill-opacity:1;fill-rule:nonzero;stroke:none"
         id="path338" /><path
         d="m 24692.6,4945.5 684.3,-297.1 -2.1,-1311.8 -255.1,-137.9 -427.1,1746.8"
         style="fill:#2c3a64;fill-opacity:1;fill-rule:nonzero;stroke:none"
         id="path340" /><path
         d="m 24020.2,4945.5 c 0,0 593.8,-304 577.7,-493.2 -19.4,-226.9 -256.3,-1284.2 -256.3,-1284.2 l -265.6,128.7 -55.8,1648.7"
         style="fill:#2c3a64;fill-opacity:1;fill-rule:nonzero;stroke:none"
         id="path342" /><path
         d="m 24601.1,4475.7 14,115.8 -634.5,649.7 39.6,-295.7 580.9,-469.8"
         style="fill:#ffffff;fill-opacity:1;fill-rule:nonzero;stroke:none"
         id="path344" /><path
         d="m 25376.9,4648.4 v 65.8 l -746.5,465.9 62.2,-234.6 684.3,-297.1"
         style="fill:#ffffff;fill-opacity:1;fill-rule:nonzero;stroke:none"
         id="path346" /><path
         d="m 24397.3,8929.8 50.8,-158.8 159.6,-48.2 -135.3,-97.4 3.5,-166.7 -134.5,98.6 -157.5,-54.8 52.3,158.3 -100.8,132.8 166.7,-0.7 95.2,136.9"
         style="fill:#ffe0b3;fill-opacity:1;fill-rule:nonzero;stroke:none"
         id="path348" /><path
         d="m 4958.62,10654.1 c 0,0 -431.16,-57.1 -544.25,-350.1 -113.09,-293.1 -243.42,-2322.3 0,-2590.8 0,0 15.67,253.3 36.99,306.3 0,0 47.83,-516.2 291.68,-621.2 243.85,-105.1 1175.21,1540.3 1175.21,1540.3 0,0 227.81,1807.4 -959.63,1715.5"
         style="fill:#2c3a64;fill-opacity:1;fill-rule:nonzero;stroke:none"
         id="path350" /><path
         d="m 5054.46,9052.8 c 0,0 -591.01,129.9 -1117.94,-618.9 -526.92,-748.8 -291.35,-2110.2 -618.93,-2703 -327.58,-592.7 -467.96,-1528.6 -467.96,-1528.6 0,0 1291.66,155.9 1862.54,-265.2 570.88,-421.2 1506.81,0 1506.81,0 0,0 745.35,4850.3 -558.83,5160.6 l -605.69,-44.9"
         style="fill:#7ca8f4;fill-opacity:1;fill-rule:nonzero;stroke:none"
         id="path352" /><path
         d="m 5637.05,8837 c 40.68,81.3 212.38,161 281.2,101.6 212.03,-183 582.87,-668.4 725.68,-1049.6 87.92,-234.7 -506.98,-996.1 -506.98,-996.1 l -97.94,90.2 c 0,0 295.57,740.1 234,868.4 -28.41,59.2 -329.26,359.6 -492.26,485.3 -126.82,97.9 -207.3,121.6 -196.46,281.5 5.07,74.7 19.82,152.8 52.76,218.7"
         style="fill:#ffb27d;fill-opacity:1;fill-rule:nonzero;stroke:none"
         id="path354" /><path
         d="m 5935.77,6881.9 c 0,0 87.61,-405.7 73.78,-505.4 -48.26,-349.6 -65.43,-1238.1 -150.61,-1978.8 -64.16,-557.7 -109.4,-1042.3 -91.72,-1176.1 l -257.4,31.2 -3.43,0.5 c 0,0 -0.73,2.5 -1.98,7.2 0,0.2 0,0.2 0,0.2 -0.21,1 -0.52,2.1 -0.83,3.2 -18.61,74.3 -130.72,523.4 -209.35,944 -5.51,29.4 -10.81,58.7 -16.01,87.7 -43.68,247.1 -72.28,474 -59.07,595.3 5.72,52.4 2.91,128.7 -5.1,221.3 -46.8,539.8 -269.25,1631.5 16.33,1742.3 334.56,129.6 705.39,27.4 705.39,27.4"
         style="fill:#35488b;fill-opacity:1;fill-rule:nonzero;stroke:none"
         id="path356" /><path
         d="m 5763.99,3273.1 c 0,0 61.99,-113.8 180.06,-140.3 74.37,-16.6 137.91,-55.7 177.27,-110.3 33.27,-46.1 0.47,-110.5 -56.39,-110.2 l -600.05,3.4 c -51.1,0.3 -90.72,44.6 -85.32,95.5 4.73,44.4 9.69,96.1 11.95,135.8 4.94,86.6 98.79,164.5 98.79,164.5 0,0 82.38,-47.3 114.14,-52.8 69.13,-12.2 159.55,14.4 159.55,14.4"
         style="fill:#2c3a64;fill-opacity:1;fill-rule:nonzero;stroke:none"
         id="path358" /><path
         d="m 5935.77,7047.2 c 0,0 74.5,-95.6 73.78,-670.7 l -795.5,-1264.3 c -46.8,539.8 -269.25,1631.5 16.33,1742.3 334.56,129.6 705.39,192.7 705.39,192.7"
         style="fill:#2c3a64;fill-opacity:1;fill-rule:nonzero;stroke:none"
         id="path360" /><path
         d="m 5572.75,6730.1 c 0,0 -584.51,-1558.7 -935.08,-2461.7 -2.85,-7.3 -5.73,-14.5 -8.46,-21.7 -200.63,-517.4 -343.05,-940.5 -359.94,-1072.1 l -266.66,-21.1 c 0,0 10.69,738.7 56.34,1244.3 l 0.15,0.7 c 0.74,7.9 1.48,15.8 2.22,23.7 20.66,220.4 49.13,413.7 88.19,515.3 129.6,336 168.34,1416.4 580.86,1995.4 208.21,292.1 842.38,-202.8 842.38,-202.8"
         style="fill:#35488b;fill-opacity:1;fill-rule:nonzero;stroke:none"
         id="path362" /><path
         d="m 5715.56,10227.9 c -4.22,6.9 -179.67,284.4 -507.64,339.7 -265.72,44.9 -514.4,-142.8 -555.27,-409.2 -41.07,-267.6 0.81,-614.4 437.47,-739.4 l 625.44,808.9"
         style="fill:#2c3a64;fill-opacity:1;fill-rule:nonzero;stroke:none"
         id="path364" /><path
         d="m 5635.22,9035.2 -494.13,-293.5 -124.89,347.8 c 0,0 57.27,126.8 73.92,329.5 6.95,85.3 6.79,184 -7.98,292.4 l 429.69,-186.6 c 0,0 -7.47,-39.1 -10.51,-96.3 -3.18,-61.9 -1.08,-144.8 21.37,-222.3 19.33,-66.5 53.61,-129 112.53,-171"
         style="fill:#ffb27d;fill-opacity:1;fill-rule:nonzero;stroke:none"
         id="path366" /><path
         d="m 5522.69,9206.2 c -237.04,-8.7 -432.57,212.8 -432.57,212.8 l 411.2,9.5 c -3.18,-61.9 -1.08,-144.8 21.37,-222.3"
         style="fill:#ea9c68;fill-opacity:1;fill-rule:nonzero;stroke:none"
         id="path368" /><path
         d="m 5629.08,9345.4 c 0,0 -464.08,-154.7 -650.79,210.3 -201.48,393.9 -27.48,701.3 131.54,731.4 317.11,60 510.53,-50 574.89,-175.3 64.37,-125.3 200.58,-683.4 -55.64,-766.4"
         style="fill:#ffb27d;fill-opacity:1;fill-rule:nonzero;stroke:none"
         id="path370" /><path
         d="m 5428.52,9544.8 c 0,0 22.85,-47.4 145.63,-12.2 0,0 103.08,29.6 87.72,83.9 0,0 -109.99,16.7 -233.35,-71.7"
         style="fill:#ffffff;fill-opacity:1;fill-rule:nonzero;stroke:none"
         id="path372" /><path
         d="m 4561.24,6764.2 -2.94,1714.6 -31.86,234.8 c -16.78,124.1 51.99,244.9 167.71,293.5 105.64,43.6 182.8,53.7 316.96,82.2 82.18,-75.5 243.19,-182.8 412.58,-149.3 127.46,25.2 152.61,94 145.9,167.8 33.54,-3.4 62.06,-6.7 90.56,-10.1 164.37,-23.5 293.5,-149.3 320.34,-313.6 41.92,-258.3 58.25,-1246.2 85.04,-1991.5 16.48,-458.5 -1564.67,-281.6 -1504.29,-28.4"
         style="fill:#f99746;fill-opacity:1;fill-rule:nonzero;stroke:none"
         id="path374" /><path
         d="m 5303.92,10243.8 c 0,0 43.99,-435.4 -369.04,-589.7 -164.22,-61.3 -249.72,603.6 93.44,736.4 343.16,132.8 681.58,-24.9 722.04,-257 40.46,-232.1 9.64,-280.5 9.64,-280.5 0,0 -160.62,441.6 -456.08,390.8"
         style="fill:#2c3a64;fill-opacity:1;fill-rule:nonzero;stroke:none"
         id="path376" /><path
         d="m 4287.55,3275.4 c 0,0 57.11,-116.1 175.18,-142.6 74.37,-16.6 137.91,-55.7 177.27,-110.3 33.28,-46.1 0.47,-110.5 -56.39,-110.2 l -600.05,3.4 c -51.09,0.3 -90.72,44.6 -85.32,95.5 4.72,44.4 9.69,96.1 11.96,135.8 4.92,86.6 98.78,164.5 98.78,164.5 0,0 82.38,-47.3 114.14,-52.8 69.13,-12.2 164.43,16.7 164.43,16.7"
         style="fill:#2c3a64;fill-opacity:1;fill-rule:nonzero;stroke:none"
         id="path378" /><path
         d="m 4850.66,8999.3 c -51.22,68.5 -214.62,-24.5 -214.62,-24.5 -190.47,-258.6 -688.44,-912.2 -733.61,-1390.3 -26.49,-280.5 734.21,-830.9 734.21,-830.9 l 39.57,174.3 c 0,0 -422.94,619.8 -354.9,715.6 68.06,95.9 591.06,766.1 591.06,766.1 0,0 88.94,388.2 -61.71,589.7"
         style="fill:#ffb27d;fill-opacity:1;fill-rule:nonzero;stroke:none"
         id="path380" /><path
         d="m 4677.63,6934.4 c 0,0 196.19,84.8 260.81,14.1 64.62,-70.8 194.57,-222.7 83.8,-207.9 -110.78,14.8 -181.55,54.8 -212.32,42.5 -30.77,-12.3 -116.93,-95.4 -200,-3.1 -83.08,92.3 67.71,154.4 67.71,154.4"
         style="fill:#ffb27d;fill-opacity:1;fill-rule:nonzero;stroke:none"
         id="path382" /><path
         d="m 6078.88,7022.2 c 0,0 -237.01,33.8 -274.16,-38.4 -37.16,-72.1 -83.22,-250.9 4.02,-214.3 87.25,36.6 136.23,85 164.1,81.7 27.86,-3.2 116.64,-52.1 164.11,41.7 47.48,93.8 -58.07,129.3 -58.07,129.3"
         style="fill:#ffb27d;fill-opacity:1;fill-rule:nonzero;stroke:none"
         id="path384" /><path
         d="m 4837.39,9052.8 c 0,0 -417.29,-64.3 -661.67,-601.6 0,0 110.24,-428.1 580.65,-400.4 l 322.39,460.2 -241.37,541.8"
         style="fill:#f99746;fill-opacity:1;fill-rule:nonzero;stroke:none"
         id="path386" /><path
         d="m 5718.81,9084.6 c 0,0 254.33,-32.8 405.13,-222.6 150.8,-189.8 210.6,-366.6 210.6,-366.6 0,0 13,-442 -416,-483.6 -428.98,-41.6 -199.73,1072.8 -199.73,1072.8"
         style="fill:#f99746;fill-opacity:1;fill-rule:nonzero;stroke:none"
         id="path388" /><path
         d="m 5533.12,7949.2 33.88,568.3 -182.06,-120 -94.9,344.2 34.03,-542.1 141.87,124.5 67.18,-374.9"
         style="fill:#ffffff;fill-opacity:1;fill-rule:nonzero;stroke:none"
         id="path390" /><path
         d="m 5059.62,9226.5 c 0,0 -155.56,-81.7 -172.2,-173.7 -16.65,-92 482.54,-177.8 482.54,-177.8 0,0 -233.29,357.3 -310.34,351.5"
         style="fill:#7ca8f4;fill-opacity:1;fill-rule:nonzero;stroke:none"
         id="path392" /><path
         d="M 5529.64,9184.5 5369.96,8875 c 0,0 350.56,111.3 290.19,222.7 -64.86,119.6 -130.51,86.8 -130.51,86.8"
         style="fill:#7ca8f4;fill-opacity:1;fill-rule:nonzero;stroke:none"
         id="path394" /><path
         d="m 5294.28,8898.4 c 0,41.8 33.88,75.7 75.68,75.7 41.79,0 75.67,-33.9 75.67,-75.7 0,-41.8 -33.88,-75.7 -75.67,-75.7 -41.8,0 -75.68,33.9 -75.68,75.7"
         style="fill:#ffffff;fill-opacity:1;fill-rule:nonzero;stroke:none"
         id="path396" /><path
         d="M 30857.3,2838.5 H 1406.35 c -21.13,0 -38.41,17.3 -38.41,38.5 v 26.4 c 0,21.1 17.28,38.4 38.41,38.4 H 30857.3 c 21.2,0 38.4,-17.3 38.4,-38.4 V 2877 c 0,-21.2 -17.2,-38.5 -38.4,-38.5"
         style="fill:#2e3552;fill-opacity:1;fill-rule:nonzero;stroke:none"
         id="path398" /></g></g></svg>
