<svg xmlns="http://www.w3.org/2000/svg" width="1207.2" height="642.295" viewBox="0 0 1207.2 642.295">
  <g id="Groupe_23" data-name="Groupe 23" transform="translate(33.006 -180.478)">
    <path id="Tracé_6" data-name="Tracé 6" d="M1405.725,870.269c-.1.6-.207,1.2-.32,1.805H240.874S202.1,788.054,202.1,675a465.4,465.4,0,0,1,9.165-92.805,430.588,430.588,0,0,1,20.277-69.448c46.476-120.317,200.2-159.243,319.8-139.169,62.175,10.439,146.006,46.381,239.023-57.282,125.638-140.012,510.368-124.437,496.954,153.421q-.389,7.975-1.213,16.235-.434,4.334-.994,8.754-1.016,7.982-2.445,16.231-2.636,15.192-6.737,31.291c-36.171,141.536,105.243,144.6,129.793,255.339C1410.2,817.734,1410.787,841.47,1405.725,870.269Z" transform="translate(1376.297 1052.553) rotate(180)" fill="rgba(115,134,179,0.2)"/>
    <g id="Groupe_15" data-name="Groupe 15" transform="translate(517.005 442.904)">
      <path id="Tracé_8" data-name="Tracé 8" d="M1300.8,992.959s52.03,9.792,66.85,89.731,47.582,93.2,47.582,93.2-3.163,32.006-51.717,29.081-73.561,8.775-73.561,8.775-60.028-32.174-52.317-81.313,23.151-132.219,23.151-132.219Z" transform="translate(-1231.4 -927.973)" fill="#f99746"/>
      <path id="Tracé_9" data-name="Tracé 9" d="M1254.329,1666.945a11.527,11.527,0,0,1-7.273,5.505,12.545,12.545,0,0,0-7.541,4.634,2.941,2.941,0,0,0,2.364,4.685h25.435a3.656,3.656,0,0,0,3.64-4.024c-.189-1.884-.388-4.079-.474-5.761-.188-3.674-3.867-6.63-3.867-6.63Z" transform="translate(-1232.706 -1369.15)" fill="#2c3a64"/>
      <path id="Tracé_10" data-name="Tracé 10" d="M1281.909,1381.488s6.1,3.6,16.427,1.429c0,0,36.629-140.03,31.681-150.629s-43.418,5.011-43.418,5.011l-2.3,35.8Z" transform="translate(-1260.899 -1082.583)" fill="#35488b"/>
      <path id="Tracé_11" data-name="Tracé 11" d="M1354.461,1269.708l-10.92-17.976-21.6,3.358,22.82,61.079Z" transform="translate(-1287.163 -1097.762)" fill="#2c3a64"/>
      <path id="Tracé_12" data-name="Tracé 12" d="M1253.724,1017.474c-1.761-2.356-7.38.841-7.38.841-6.55,8.892-23.958,33.511-25.511,49.954-.911,9.645,25.532,26.428,25.532,26.428l1.361-5.993s-11.2-21.925-8.864-25.221,18.049-23.921,18.049-23.921S1258.9,1024.4,1253.724,1017.474Z" transform="translate(-1220.81 -943.49)" fill="#ffb27d"/>
      <path id="Tracé_13" data-name="Tracé 13" d="M1445.3,1666.945a11.525,11.525,0,0,1-7.272,5.505,12.544,12.544,0,0,0-7.541,4.634,2.941,2.941,0,0,0,2.364,4.685h25.435a3.657,3.657,0,0,0,3.64-4.024c-.19-1.884-.388-4.079-.474-5.761-.188-3.674-3.867-6.63-3.867-6.63Z" transform="translate(-1358.005 -1369.15)" fill="#2c3a64"/>
      <path id="Tracé_14" data-name="Tracé 14" d="M1359.165,1234.991s35.33,131.849,36.413,144.752c0,0,6.892,3.535,18.078-2.71,0,0,1.042-138.348-15.481-149.358S1359.165,1234.991,1359.165,1234.991Z" transform="translate(-1311.588 -1079.667)" fill="#35488b"/>
      <path id="Tracé_15" data-name="Tracé 15" d="M1346.9,947.064l21.693,11.087,4.347-15.05a46.14,46.14,0,0,1-4.014-13.74,57.289,57.289,0,0,1-.449-12.388l-17.675,9.05a33.5,33.5,0,0,1,.7,4.046,29.418,29.418,0,0,1-.306,9.457A13.093,13.093,0,0,1,1346.9,947.064Z" transform="translate(-1303.54 -878.118)" fill="#ffb27d"/>
      <path id="Tracé_16" data-name="Tracé 16" d="M1295.548,1075.961s39.564,13.1,64.137,1.5c1.034-.489,1.016-17.947,1.016-17.947l2.4-19.941,1.365-11.37,5.558-22.393c-6.766-7.717-21.327-13.156-30.781-12.868-3.3,3.378-9.807,8.346-17.088,7.4-5.473-.716-6.314-3.612-6.218-6.731a45.608,45.608,0,0,0-19.168,8S1297.424,1059.556,1295.548,1075.961Z" transform="translate(-1269.848 -927.953)" fill="#35488b"/>
      <path id="Tracé_17" data-name="Tracé 17" d="M1359.4,963.165C1369.454,962.9,1377.13,953,1377.13,953l-17.42.708A29.422,29.422,0,0,1,1359.4,963.165Z" transform="translate(-1311.745 -901.755)" fill="#ea9c68"/>
      <g id="Groupe_14" data-name="Groupe 14" transform="translate(34.789 0)">
        <path id="Tracé_18" data-name="Tracé 18" d="M1331.391,886.983s20.048,5.293,26.963-10.649c7.464-17.2-.724-29.74-7.532-30.585-13.576-1.686-21.462,3.491-23.848,8.962S1320.33,884.162,1331.391,886.983Z" transform="translate(-1323.397 -831.173)" fill="#ffb27d"/>
        <path id="Tracé_19" data-name="Tracé 19" d="M1349.06,935.328s-.839,2.068-6.127.907c0,0-4.44-.974-3.937-3.312C1339,932.923,1343.6,931.921,1349.06,935.328Z" transform="translate(-1333.118 -888.492)" fill="#fff"/>
        <g id="Groupe_13" data-name="Groupe 13">
          <path id="Tracé_20" data-name="Tracé 20" d="M1353.357,854.716s2.352-6.9,2.07-10.583c0,0,5.232-6.671,2.184-8.322s-4.693,2.3-5.392,1.521-1.789-13.883-5.491-13.469-17.4,4.658-23.4-.519,8.562-25.408,33.247-17.594S1376.218,841.011,1353.357,854.716Z" transform="translate(-1321.978 -803.977)" fill="#2c3a64"/>
          <path id="Tracé_21" data-name="Tracé 21" d="M1454.608,829.527s1.118-3.335-.082-5.717c0,0-.059,3.281-1.348,4.741S1454.608,829.527,1454.608,829.527Z" transform="translate(-1407.835 -816.99)" fill="#2c3a64"/>
          <path id="Tracé_22" data-name="Tracé 22" d="M1456.5,833.62s3.054-.346,4.5,2a3.926,3.926,0,0,0-4.326.087Z" transform="translate(-1410.243 -823.415)" fill="#2c3a64"/>
        </g>
      </g>
      <path id="Tracé_23" data-name="Tracé 23" d="M1478.775,1026.81a5.422,5.422,0,0,1,8.518.622c6.063,8.972,19.722,30.7,21.2,46.362.911,9.645-28.73,25.635-28.73,25.635l-2.861-6.524s15.9-20.6,13.563-23.9c-1.469-2.069-8.206-10.966-13.018-17.3a18.586,18.586,0,0,1-2.85-17.266A22.571,22.571,0,0,1,1478.775,1026.81Z" transform="translate(-1386.677 -949.016)" fill="#ffb27d"/>
      <path id="Tracé_24" data-name="Tracé 24" d="M1361.251,1234.394s-28.566,8.409-65.7,0v6.708s35.418,12.963,65.7.483Z" transform="translate(-1269.848 -1086.386)" fill="#c4453b"/>
      <path id="Tracé_25" data-name="Tracé 25" d="M1451.557,1216.471s-9.229-5.176-11.959-2.186-7.28,11-2.6,10.376,7.67-2.316,8.97-1.8,4.94,4.03,8.45.13S1451.557,1216.471,1451.557,1216.471Z" transform="translate(-1361.331 -1072.581)" fill="#ffb27d"/>
      <path id="Tracé_26" data-name="Tracé 26" d="M1291.209,1214.938s9.229-5.176,11.959-2.186,7.281,11,2.6,10.376-7.67-2.316-8.97-1.8-4.94,4.03-8.45.13S1291.209,1214.938,1291.209,1214.938Z" transform="translate(-1264.431 -1071.575)" fill="#ffb27d"/>
      <path id="Tracé_27" data-name="Tracé 27" d="M1351.676,1045.777l-3.281,10.1h-10.618l8.59,6.241-3.281,10.1,8.59-6.241,8.59,6.241-3.281-10.1,8.59-6.241h-10.618Z" transform="translate(-1297.555 -962.629)" fill="#f99746"/>
      <path id="Tracé_28" data-name="Tracé 28" d="M1286.742,1012.145s2.745.917,4.144,9.886,11.138-20.852,11.138-20.852S1290.433,1004.511,1286.742,1012.145Z" transform="translate(-1264.07 -933.367)" fill="#35488b"/>
      <path id="Tracé_29" data-name="Tracé 29" d="M1402.633,986.671s-9.423,8.846-27.19,6.89c0,0,12.775-13.42,18.04-12.543S1402.633,986.671,1402.633,986.671Z" transform="translate(-1322.269 -920.112)" fill="#f99746"/>
      <path id="Tracé_30" data-name="Tracé 30" d="M1340.665,983.431s.59,8.7,6.464,11.1c0,0-10.594.924-15.945-5.592C1331.184,988.942,1337.07,979.658,1340.665,983.431Z" transform="translate(-1293.229 -921.13)" fill="#f99746"/>
      <circle id="Ellipse_1" data-name="Ellipse 1" cx="2.889" cy="2.889" r="2.889" transform="translate(50.285 70.515)" fill="#c4453b"/>
    </g>
    <g id="Groupe_18" data-name="Groupe 18" transform="translate(331.255 376.035)">
      <path id="Tracé_31" data-name="Tracé 31" d="M970.667,811.841s22.779,29.2,27.606,29.971,37.182,6.047,37.182,6.047l.989,6.223S1002.169,859.5,990,855.79s-40.052-33.8-40.052-33.8Z" transform="translate(-857.34 -742.267)" fill="#ffb27d"/>
      <path id="Tracé_32" data-name="Tracé 32" d="M792.734,798.468S732.113,853.226,745.19,935.1s63.821,89.167,63.821,89.167,6.81-16.213,44.908-24.319,52.552-42.93,52.552-42.93-75.87-50.848-65.833-149.869Z" transform="translate(-721.78 -733.493)" fill="#7ca8f4"/>
      <path id="Tracé_33" data-name="Tracé 33" d="M949.395,1461.845a11.526,11.526,0,0,0,4.087,8.155,12.546,12.546,0,0,1,4.713,7.492,2.941,2.941,0,0,1-4.193,3.155l-22.81-11.253a3.657,3.657,0,0,1-1.483-5.219c1-1.606,2.152-3.486,2.974-4.957,1.794-3.211,6.4-4.235,6.4-4.235Z" transform="translate(-843.694 -1164.25)" fill="#2c3a64"/>
      <path id="Tracé_34" data-name="Tracé 34" d="M739.295,823.933s-29.151,25.671-38.128,47.146-9.475,28.693-9.475,28.693l5.751-.014s18.772-27.4,22.739-29.234,22.089-18.214,22.089-18.214Z" transform="translate(-687.891 -750.201)" fill="#ffb27d"/>
      <path id="Tracé_35" data-name="Tracé 35" d="M698.891,1394.51s-6.672,4.957-8.358,9.8a12.542,12.542,0,0,1-5.507,6.928,2.941,2.941,0,0,1-4.366-2.91l3.06-25.25a3.657,3.657,0,0,1,4.432-3.129c1.848.415,4,.875,5.663,1.163,3.624.629,6.117,4.637,6.117,4.637Z" transform="translate(-680.637 -1114.961)" fill="#2c3a64"/>
      <path id="Tracé_36" data-name="Tracé 36" d="M946.291,1034.173l-2.214,35.807-11.248,107.828a42.028,42.028,0,0,1-17.716-2.4s-4.148-33.578-7.682-69.187c-1.969-19.819-3.752-40.271-4.519-55.911-.7-14.011-.577-24.164.937-26.564C910.089,1013.852,946.291,1034.173,946.291,1034.173Z" transform="translate(-826.21 -879.523)" fill="#f99746"/>
      <path id="Tracé_37" data-name="Tracé 37" d="M928.809,752.6l-21.693,11.087-4.347-15.05a46.127,46.127,0,0,0,4.014-13.74,57.307,57.307,0,0,0,.449-12.388l17.674,9.05a33.536,33.536,0,0,0-.7,4.046,29.419,29.419,0,0,0,.305,9.458A13.089,13.089,0,0,0,928.809,752.6Z" transform="translate(-826.384 -683.657)" fill="#ffb27d"/>
      <path id="Tracé_38" data-name="Tracé 38" d="M932.167,768.7c-10.05-.269-17.726-10.166-17.726-10.166l17.42.708A29.42,29.42,0,0,0,932.167,768.7Z" transform="translate(-834.042 -707.294)" fill="#ea9c68"/>
      <path id="Tracé_39" data-name="Tracé 39" d="M872.048,816.64C864.8,801.872,853.355,801.3,853.355,801.3v0a44.657,44.657,0,0,0-8.138-2.161c.1,3.118-.745,6.014-6.218,6.731-7.282.949-13.792-4.019-17.088-7.4-9.454-.288-24.014,5.151-30.78,12.868l-11.6,11.512s7.6,17.75,18.1,18.734l.422,3.517,2.4,19.94s-.018,17.458,1.017,17.947c24.573,11.607,64.137-1.5,64.137-1.5-.952-8.322-1.253-27.335-1.318-44.05C872.048,823.089,872.048,816.64,872.048,816.64Z" transform="translate(-745.527 -733.493)" fill="#2c3a64"/>
      <g id="Groupe_17" data-name="Groupe 17" transform="translate(60.044)">
        <path id="Tracé_40" data-name="Tracé 40" d="M923.066,692.523s-20.048,5.294-26.963-10.648c-7.464-17.2.725-29.74,7.533-30.585,13.576-1.686,21.461,3.491,23.847,8.962S934.127,689.7,923.066,692.523Z" transform="translate(-880.11 -636.713)" fill="#ffb27d"/>
        <path id="Tracé_41" data-name="Tracé 41" d="M957.054,740.868s.839,2.068,6.127.907c0,0,4.44-.974,3.936-3.311C967.118,738.464,962.51,737.461,957.054,740.868Z" transform="translate(-922.045 -694.033)" fill="#fff"/>
        <g id="Groupe_16" data-name="Groupe 16">
          <path id="Tracé_42" data-name="Tracé 42" d="M874.819,660.256s-2.352-6.9-2.07-10.583c0,0-5.232-6.671-2.184-8.322s4.693,2.3,5.392,1.521,1.789-13.883,5.491-13.469,17.4,4.658,23.4-.519-8.562-25.408-33.247-17.593S851.958,646.551,874.819,660.256Z" transform="translate(-855.247 -609.517)" fill="#2c3a64"/>
          <path id="Tracé_43" data-name="Tracé 43" d="M866.491,635.067s-1.119-3.335.082-5.717c0,0,.059,3.281,1.347,4.741S866.491,635.067,866.491,635.067Z" transform="translate(-862.314 -622.53)" fill="#2c3a64"/>
          <path id="Tracé_44" data-name="Tracé 44" d="M860.312,639.16s-3.054-.346-4.5,2a3.926,3.926,0,0,1,4.326.088Z" transform="translate(-855.621 -628.955)" fill="#2c3a64"/>
        </g>
      </g>
      <path id="Tracé_45" data-name="Tracé 45" d="M920.676,851.317l3.281,10.1h10.618l-8.59,6.241,3.281,10.1-8.59-6.241-8.59,6.241,3.281-10.1-8.59-6.241H917.4Z" transform="translate(-829.014 -768.169)" fill="#f99746"/>
      <path id="Tracé_46" data-name="Tracé 46" d="M870.879,792.211s9.424,8.846,27.19,6.89c0,0-12.775-13.42-18.04-12.543S870.879,792.211,870.879,792.211Z" transform="translate(-805.46 -725.652)" fill="#fff"/>
      <path id="Tracé_47" data-name="Tracé 47" d="M954.3,788.971s-.59,8.7-6.464,11.1c0,0,10.594.924,15.945-5.592C963.784,794.482,957.9,785.2,954.3,788.971Z" transform="translate(-855.956 -726.67)" fill="#fff"/>
      <path id="Tracé_48" data-name="Tracé 48" d="M941.548,817.469a2.889,2.889,0,1,1,2.889,2.889A2.889,2.889,0,0,1,941.548,817.469Z" transform="translate(-851.828 -744.065)" fill="#35488b"/>
      <path id="Tracé_49" data-name="Tracé 49" d="M941.536,1054.763l-33.324,70.282c-1.969-19.819-3.752-40.271-4.519-55.911l6.14-19.416Z" transform="translate(-826.99 -898.345)" fill="#e27f34"/>
      <path id="Tracé_50" data-name="Tracé 50" d="M798.665,1055.806s-24.474,86.164-34.882,95.717-46.484,30.367-46.484,30.367l-8.607-14.144s30.288-34.9,31.676-41.271,13.057-68.936,13.057-68.936Z" transform="translate(-699.045 -902.34)" fill="#f99746"/>
      <path id="Tracé_51" data-name="Tracé 51" d="M839.8,1037.086s27.546,9.388,64.683.979v6.708s-35.419,12.964-65.7.483Z" transform="translate(-784.397 -890.057)" fill="#fff"/>
      <path id="Tracé_52" data-name="Tracé 52" d="M1195.836,904.549s8.029-5.808,11.378-6.233,7.764-1.613,7.182,0-5.532,4.525-6.212,5.69-1.65,2.62-.291,2.232,4.562-2.135,4.173-1.165-5.144,5.047-7.764,5.435a32.584,32.584,0,0,1-7.284-.331Z" transform="translate(-1018.674 -798.467)" fill="#ffb27d"/>
      <path id="Tracé_53" data-name="Tracé 53" d="M684.545,1044.453s-4.012,9.061-3.731,12.425.036,7.93,1.493,7.025,3.276-6.352,4.274-7.258,2.22-2.159,2.123-.749-1.14,4.906-.272,4.324,3.867-6.081,3.7-8.725a32.571,32.571,0,0,0-1.838-7.056Z" transform="translate(-680.744 -894.881)" fill="#ffb27d"/>
    </g>
    <g id="Groupe_19" data-name="Groupe 19" transform="translate(638.891 371.996)">
      <path id="Tracé_54" data-name="Tracé 54" d="M1778.031,775.162s58.665,21.312,71.81,31.332c38.907,29.658,45.637,67.724,72,88.421,0,0,8.974,11.73-29.725,29.725s-64.378-12.387-97.238,0c0,0-83.01-4.571-61.323-60.627,11.988-30.984-10.844-57.519,18.991-87.151Z" transform="translate(-1676.749 -714.162)" fill="#f99746"/>
      <path id="Tracé_55" data-name="Tracé 55" d="M1655.59,839.405a52.923,52.923,0,0,1-9.027,9.2,255.768,255.768,0,0,1-24.188,17.484s-12.172.325-10.537-1.881c1.447-1.948,23.5-26.915,28.657-32.751.688-.774,1.073-1.211,1.073-1.211,4.831-8.521,10.489-24.585,15.477-34.3,2.49-4.85,5.324-9.333,10.522-10.993,4.45-1.421,10.724-.561,12.934,5.209C1685.1,802.208,1662.526,829.321,1655.59,839.405Z" transform="translate(-1599.161 -720.194)" fill="#3e59a3"/>
      <path id="Tracé_56" data-name="Tracé 56" d="M1936.835,858.094a239.784,239.784,0,0,1-22.558-11.3c-5.3-3.088-10.212-6.42-12.979-9.452-8.256-9.041-41.5-34.255-38.592-46.819s21.968-5.56,21.968-5.56,20.218,29.633,29.977,42.144l3.306,3.014c7.381,6.726,24.675,22.509,26.185,24.046C1946.063,856.135,1936.835,858.094,1936.835,858.094Z" transform="translate(-1763.744 -719.32)" fill="#3e59a3"/>
      <path id="Tracé_57" data-name="Tracé 57" d="M1816.07,780.071c-7.1-5.983-44.31-6.076-54.468.088-7.871,4.777-1.207,28.009,3.561,49.677,2.794,12.7,7.637,31.281,7.637,31.281l53.858-2.578s-2.575-3.4-4.668-14.373a133.732,133.732,0,0,1-1.948-23.557C1820.312,800.6,1824.086,786.821,1816.07,780.071Z" transform="translate(-1695.14 -714.423)" fill="#3e59a3"/>
      <path id="Tracé_58" data-name="Tracé 58" d="M1725.485,1030.149s-39.381,44.613-42.036,61.66c-1.1,7.064,55.919,31.573,55.919,31.573l9-3.972s-37.054-30.557-36.618-32.456,54.818-33.794,52.541-47.168S1725.485,1030.149,1725.485,1030.149Z" transform="translate(-1646.236 -881.151)" fill="#ffb27d"/>
      <path id="Tracé_59" data-name="Tracé 59" d="M1827.467,1002.222c-.4,2.86,40.1,88.46,40.1,88.46l32.982,36.683a214.07,214.07,0,0,1-4.792-27.237c-1.979-18.291-4.647-28.911-9.223-35.4-3.536-5.011-6.973-63.94-25.361-68.8S1827.467,1002.222,1827.467,1002.222Z" transform="translate(-1740.739 -858.209)" fill="#ffb27d"/>
      <path id="Tracé_60" data-name="Tracé 60" d="M1989.109,1380.5s-.209,6.231-4.715,9.915a14.233,14.233,0,0,0-5.241,8.569,3.338,3.338,0,0,0,4.8,3.521l25.725-13.1a4.15,4.15,0,0,0,1.609-5.944c-1.162-1.808-4.647-5.5-6.375-6.32-4.706-2.232-5.162-8.16-5.162-8.16s-2.227,7.767-3.472,8.692C1993.569,1379.689,1989.109,1380.5,1989.109,1380.5Z" transform="translate(-1840.236 -1103.786)" fill="#2c3a64"/>
      <path id="Tracé_61" data-name="Tracé 61" d="M1839.979,1275.369s6.41,3.167,7.362,8.909a14.235,14.235,0,0,0,4.823,8.811,3.338,3.338,0,0,0,5.445-2.413l1.451-26.344c.123-2.455-2.427-4.7-6.12-5.2-2.13-.284-5.6-.266-7.291.633a4.564,4.564,0,0,1-5.842-.935s2.222,7.256,2.4,8.8C1842.607,1270.981,1839.979,1275.369,1839.979,1275.369Z" transform="translate(-1748.837 -1031.512)" fill="#2c3a64"/>
      <path id="Tracé_62" data-name="Tracé 62" d="M1959.714,1288.4l-25.407-50.991.206-8.794s17.636,6.419,29.23,8l7.6,46.284S1973.51,1289.166,1959.714,1288.4Z" transform="translate(-1810.841 -1011.684)" fill="#2c3a64"/>
      <path id="Tracé_63" data-name="Tracé 63" d="M1814.434,1030.476l-6.349,4.891-16.654,12.822q-2.277.089-4.342,0c-22.947-1.043-27.341-18.188-27.341-18.188l16.286-27.378Z" transform="translate(-1696.308 -863.403)" fill="#3e59a3"/>
      <path id="Tracé_64" data-name="Tracé 64" d="M1802.278,623.528a16,16,0,0,0-12.241-1.294c-6.766,2.084-12.726,13.373-10.989,24.69s-8.072,10.467-4.474,19.776c1.276,3.3,22.272,8.215,24.287-3.9,1.248-7.507-5.551-8.6-2.69-16.6S1802.278,623.528,1802.278,623.528Z" transform="translate(-1705.511 -613.376)" fill="#2c3a64"/>
      <path id="Tracé_65" data-name="Tracé 65" d="M1815.318,609.805c.207-.272,8.65-10.947,22.438-11.977a20.5,20.5,0,0,1,21.833,19.405c.583,11.441-2.64,25.952-21.621,29.275Z" transform="translate(-1732.769 -597.772)" fill="#2c3a64"/>
      <path id="Tracé_66" data-name="Tracé 66" d="M1818,732.424c4.728,7.354,15.357,5.7,19.319,2.846,2.018-1.454,3.847-2.755,3.323-5.186a62.35,62.35,0,0,1-1.524-13.92,57.029,57.029,0,0,1,1.63-12.228l-18.852,5.924a33.392,33.392,0,0,1,.014,4.087,29.274,29.274,0,0,1-1.881,9.227,32.553,32.553,0,0,1-2.259,4.883C1816.729,729.761,1816.921,730.743,1818,732.424Z" transform="translate(-1733.927 -667.428)" fill="#ffb27d"/>
      <path id="Tracé_67" data-name="Tracé 67" d="M1828.569,741.484c9.372,1.341,18.063-6.632,18.063-6.632l-16.283-2.1A27.7,27.7,0,0,1,1828.569,741.484Z" transform="translate(-1741.464 -686.337)" fill="#ed975d"/>
      <path id="Tracé_68" data-name="Tracé 68" d="M1804.78,667.435s18.782,8.546,28.233-5.937c10.2-15.63,4.263-29.3-2.274-31.264-13.036-3.925-21.638-.165-24.894,4.8S1794.4,662.817,1804.78,667.435Z" transform="translate(-1722.517 -617.999)" fill="#ffb27d"/>
      <path id="Tracé_69" data-name="Tracé 69" d="M1823.219,712.08s-1.168,1.888-6.162-.135c0,0-4.193-1.7-3.308-3.907C1813.749,708.038,1818.437,707.824,1823.219,712.08Z" transform="translate(-1731.659 -670.119)" fill="#fff"/>
      <path id="Tracé_70" data-name="Tracé 70" d="M1899.614,640.126a16.572,16.572,0,0,1,13.645,3.9c6.222,5.538,7.244,21.835.059,34.728s3.66,16.247-4.561,25.884c-2.916,3.418-27.588-.022-24.02-15.558,2.21-9.625,9.968-7.914,10.693-18.854S1899.614,640.126,1899.614,640.126Z" transform="translate(-1778.086 -625.414)" fill="#2c3a64"/>
      <path id="Tracé_71" data-name="Tracé 71" d="M1818.617,853.572l5.128-22.429,5.7,6.719,7.582-12.275-7.465,20.643-4.091-6.44Z" transform="translate(-1734.934 -747.248)" fill="#fff"/>
      <path id="Tracé_72" data-name="Tracé 72" d="M1686.984,1213.73s27.415,18.055,54.714,30.412l1.312-13.942s-16.889-17.574-23.619-19.817S1686.984,1213.73,1686.984,1213.73Z" transform="translate(-1648.566 -999.374)" fill="#2c3a64"/>
      <path id="Tracé_73" data-name="Tracé 73" d="M1858.212,1063.2l-16.654,12.822q-2.277.089-4.341,0v0c5.874-17.436-.92-30.684-1.07-30.975Z" transform="translate(-1746.436 -891.236)" fill="#2c3a64"/>
      <path id="Tracé_74" data-name="Tracé 74" d="M1807.108,989.154c1.43.935,24.744,42.25,24.744,42.25s17.4,4.263,34.877-9.739c0,0-6.676-35.009-14.042-44.7Z" transform="translate(-1727.382 -846.573)" fill="#3e59a3"/>
      <path id="Tracé_75" data-name="Tracé 75" d="M2081.519,982.5s9.291,1.739,14.3,1.5c5.778-.28,6.623.5,5.4,1.874s-8.857,4.783-12.37,4.988,4.677,2.725,2.8,3.679-13.028-5.561-13.028-5.561Z" transform="translate(-1905.53 -850.205)" fill="#2c3a64"/>
      <path id="Tracé_76" data-name="Tracé 76" d="M1595.7,1004.25s-9.1,4.447-14.115,4.236-7.352,1.892-5.9,3.017,9.59,3.059,13.08,2.61-4.091,3.544-2.066,4.133,11.773-7.879,11.773-7.879Z" transform="translate(-1575.262 -864.473)" fill="#2c3a64"/>
      <path id="Tracé_77" data-name="Tracé 77" d="M1825.526,620.4s-3.776,18.068,12.866,26.372c6.617,3.3,13.153-24.214-.654-31.305s-28.7-1.978-31.429,7.58-1.649,11.724-1.649,11.724S1813.357,616.957,1825.526,620.4Z" transform="translate(-1725.639 -607.206)" fill="#2c3a64"/>
      <path id="Tracé_78" data-name="Tracé 78" d="M1791.684,979.267s11.235,10.076,52.429-4.195l2.919,9.473s-23.48,12.773-52.9,4.8Z" transform="translate(-1717.262 -845.329)" fill="#fff"/>
      <path id="Tracé_79" data-name="Tracé 79" d="M1646.563,938.475a255.78,255.78,0,0,1-24.188,17.485s-12.172.325-10.537-1.881c1.447-1.948,23.5-26.914,28.657-32.751A34.249,34.249,0,0,1,1646.563,938.475Z" transform="translate(-1599.161 -810.065)" fill="#2c3a64"/>
      <path id="Tracé_80" data-name="Tracé 80" d="M2035.577,947.97a239.755,239.755,0,0,1-22.558-11.3A37.3,37.3,0,0,1,2016.7,920c7.381,6.727,24.675,22.51,26.185,24.046C2044.806,946.01,2035.577,947.97,2035.577,947.97Z" transform="translate(-1862.486 -809.195)" fill="#2c3a64"/>
      <path id="Tracé_81" data-name="Tracé 81" d="M1719.391,1209.318s-21.017,3.407-25.278,7.873l-7.129-4.526S1706.864,1205.578,1719.391,1209.318Z" transform="translate(-1648.566 -998.309)" fill="#fff"/>
      <path id="Tracé_82" data-name="Tracé 82" d="M1963.743,1236.609s-19.019-.452-25.8-1.347l-1.869,5.689-1.766-3.544.206-8.794Z" transform="translate(-1810.841 -1011.684)" fill="#fff"/>
    </g>
    <g id="Groupe_20" data-name="Groupe 20" transform="translate(889.232 472.613)">
      <path id="Tracé_83" data-name="Tracé 83" d="M2359.871,1058.5s48.791-8.13,55.333,54.013c4.135,39.279-5.365,43.987,10.371,67.59a149.259,149.259,0,0,1,20.582,48.018s-21.166-7.2-52.352,3.479c-15.661,5.364-57.634,4.379-57.634,4.379s-32.886-43.3-21.2-122.751C2324.044,1051.5,2359.871,1058.5,2359.871,1058.5Z" transform="translate(-2309.296 -1000.454)" fill="#35488b"/>
      <path id="Tracé_84" data-name="Tracé 84" d="M2525.453,1096.627c8.368.715,10.99,41.126,13.613,46.848s8.106,22.411,8.106,22.411l-4.053,1.669s-14.99-18.626-15.706-22.381c-.52-2.731-8.375-29.593-8.375-29.593S2520.469,1096.2,2525.453,1096.627Z" transform="translate(-2444.841 -1025.697)" fill="#ffb27d"/>
      <path id="Tracé_85" data-name="Tracé 85" d="M2341.475,1107.026c-8.368.715-10.99,41.126-13.613,46.848s-8.106,22.411-8.106,22.411l4.053,1.669s12.769-16.387,14.378-21.666c.812-2.659,9.7-30.308,9.7-30.308S2346.459,1106.6,2341.475,1107.026Z" transform="translate(-2314.086 -1032.52)" fill="#ffb27d"/>
      <path id="Tracé_86" data-name="Tracé 86" d="M2414.118,1349.464a43.628,43.628,0,0,1-.236,8.408c-1.817,17.9-10.01,50.02-10.01,50.02l-9.306,1.13c1.287-9.785-3.2-84.971-5.45-120.833-.722-11.469-1.212-18.915-1.212-18.915s15.038.258,26.975,4.889S2412.717,1336.686,2414.118,1349.464Z" transform="translate(-2358.8 -1138.981)" fill="#f99746"/>
      <path id="Tracé_87" data-name="Tracé 87" d="M2382.37,1665.134s-2.211,4.061-6.424,5a10.559,10.559,0,0,0-6.325,3.936,2.476,2.476,0,0,0,2.012,3.932l21.409-.122a3.078,3.078,0,0,0,3.044-3.4,13.267,13.267,0,0,0-1.979-4.921c-1.946-2.969-1.028-7.142-1.028-7.142s-3.883,3.035-5.016,3.233A15.163,15.163,0,0,1,2382.37,1665.134Z" transform="translate(-2346.491 -1396.931)" fill="#2c3a64"/>
      <path id="Tracé_88" data-name="Tracé 88" d="M2414.118,1349.464a43.628,43.628,0,0,1-.236,8.408c-5.543-15.513-18.979-53.121-24.765-69.682-.722-11.469-1.212-18.915-1.212-18.915s15.038.258,26.975,4.889S2412.717,1336.686,2414.118,1349.464Z" transform="translate(-2358.8 -1138.981)" fill="#e27f34"/>
      <path id="Tracé_89" data-name="Tracé 89" d="M2406.751,944.708c-8.439,3.41-10.54-2.45-13.043-4.09-4.867-3.19-5-6.6-3.537-10.1,2.4-5.75-5.223-8.261-3.1-16.01s4.558-6.381,5.466-12.838c.726-5.162,7.683-7.441,11.454-7.619,4.83-.228,10.229-4.688,15.9-3.472s6.736,3.343,9.32,3.8,7.924-.259,15.952,7.749c7.844,7.825,4.767,10.9,5.679,14.853s1.443,13.254-2.051,15.229-5.352,9.238-9,9.42c-6.837.342-7.635,4.536-11.851,5.27-3.271.569-4.71-1.319-9.934,1.339C2415.22,949.661,2410.511,943.189,2406.751,944.708Z" transform="translate(-2358.007 -890.373)" fill="#2c3a64"/>
      <path id="Tracé_90" data-name="Tracé 90" d="M2405.336,1266.774s35.414,128.436,36.668,141.4l8.728-3.617s1.06-47.893-3.185-60.024,4.972-76.359-7.7-78.176S2405.336,1266.774,2405.336,1266.774Z" transform="translate(-2370.237 -1136.599)" fill="#f99746"/>
      <path id="Tracé_91" data-name="Tracé 91" d="M2483.915,1667.285s-.843,4.4-6.49,5.424a10.029,10.029,0,0,0-6.325,3.937,2.475,2.475,0,0,0,2.011,3.932l21.409-.122a3.078,3.078,0,0,0,3.044-3.4,11.271,11.271,0,0,0-1.739-4.921c-2.354-3.546-2.212-5.794-2.212-5.794a21.95,21.95,0,0,1-4.072,1.885C2487.075,1668.653,2483.915,1667.285,2483.915,1667.285Z" transform="translate(-2413.075 -1399.504)" fill="#2c3a64"/>
      <path id="Tracé_92" data-name="Tracé 92" d="M2417.143,925.157c.151-.25,6.41-10.148,18.112-12.123a17.307,17.307,0,0,1,19.811,14.6c1.465,9.549-.029,21.922-15.608,26.38Z" transform="translate(-2377.984 -905.086)" fill="#2c3a64"/>
      <path id="Tracé_93" data-name="Tracé 93" d="M2425.479,1026.448l17.63,10.472,4.455-12.41a38.845,38.845,0,0,1-2.637-11.756,48.23,48.23,0,0,1,.285-10.43l-15.331,6.658a28.1,28.1,0,0,1,.375,3.437,24.761,24.761,0,0,1-.762,7.928A11.019,11.019,0,0,1,2425.479,1026.448Z" transform="translate(-2383.454 -963.827)" fill="#ffb27d"/>
      <path id="Tracé_94" data-name="Tracé 94" d="M2437.155,1039.607c8.457.312,15.433-7.592,15.433-7.592l-14.671-.336A24.774,24.774,0,0,1,2437.155,1039.607Z" transform="translate(-2391.115 -983.088)" fill="#ea9c68"/>
      <path id="Tracé_95" data-name="Tracé 95" d="M2415.916,975.042s16.558,5.518,23.219-7.5c7.188-14.054.98-25.02-4.694-26.095-11.313-2.142-18.214,1.785-20.51,6.254S2406.775,972.08,2415.916,975.042Z" transform="translate(-2373.671 -923.487)" fill="#ffb27d"/>
      <path id="Tracé_96" data-name="Tracé 96" d="M2430.934,1014.643s-.815,1.692-5.2.435c0,0-3.678-1.055-3.13-2.992A12.291,12.291,0,0,1,2430.934,1014.643Z" transform="translate(-2381.533 -970.203)" fill="#fff"/>
      <path id="Tracé_97" data-name="Tracé 97" d="M2434.082,1144.292c-4.786,4.571-46.177-9.08-46.177-9.08.973-21.187,0-33.616.614-58.72.144-5.9,5.566-10.37,11.418-11.162q1.483-.205,3.218-.379c-.246,2.616.647,5.073,5.2,5.966,6.067,1.185,11.8-2.639,14.75-5.3,4.75.989,7.511,1.354,11.281,2.926a9.916,9.916,0,0,1,6,10.469l-1.139,8.4s-8.954,29.385-8.652,35.109C2431.133,1132.709,2434.208,1144.17,2434.082,1144.292Z" transform="translate(-2358.8 -1004.919)" fill="#f99746"/>
      <path id="Tracé_98" data-name="Tracé 98" d="M2428.04,933.8s-1.57,15.533,13.166,21.038c5.859,2.188,8.91-21.536-3.333-26.273s-24.318.889-25.761,9.17-.344,10.008-.344,10.008S2417.5,931.983,2428.04,933.8Z" transform="translate(-2374.195 -914.293)" fill="#2c3a64"/>
      <path id="Tracé_99" data-name="Tracé 99" d="M2498.651,1103.978a39.927,39.927,0,0,0,22.769-5.364s-3.04-17.7-13.979-23.537C2497.754,1069.909,2497.415,1095.525,2498.651,1103.978Z" transform="translate(-2431.129 -1011.114)" fill="#f99746"/>
      <path id="Tracé_100" data-name="Tracé 100" d="M2381.6,1068.079c-10.094,2.845-17.168,17.681-17.168,17.681s4.216,6.422,9.952,7.027S2387.454,1066.428,2381.6,1068.079Z" transform="translate(-2343.397 -1006.923)" fill="#f99746"/>
      <path id="Tracé_101" data-name="Tracé 101" d="M2308.937,1308.448s-5.9,1.845-5.663,3.785,2.417,7.523,3.37,6.569-1.671-4.6,1.443-5.347c1.037-.248-1.788,5.126-.834,4.887s4.053-3.457,4.768-4.768a11.737,11.737,0,0,0,.97-3.457Z" transform="translate(-2303.267 -1164.684)" fill="#ffb27d"/>
      <path id="Tracé_102" data-name="Tracé 102" d="M2590.974,1295.32s5.23,2.22,5.575,3.572c.484,1.893.523,8.185-.431,7.231s-2.307-4.221-3.261-4.7,1.372,3.327.418,3.089-5.1-2.6-5.385-4.067a19.389,19.389,0,0,0-.969-3.457Z" transform="translate(-2489.38 -1156.07)" fill="#ffb27d"/>
      <path id="Tracé_103" data-name="Tracé 103" d="M2387.905,1249.516s15.932,7.689,43.238,0c0,0,1.975,7.794,1.855,10.781,0,0-22.249,9.236-44.89-.862Z" transform="translate(-2358.8 -1126.017)" fill="#fff"/>
      <path id="Tracé_104" data-name="Tracé 104" d="M2442.19,1065.841s13.537-7.873,15.276-7.873,4.406,2.423,4.415,3.776S2452.718,1069.12,2442.19,1065.841Z" transform="translate(-2394.418 -1000.337)" fill="#35488b"/>
      <path id="Tracé_105" data-name="Tracé 105" d="M2426.857,1059.194s1.464,3.835,2.562,7.431c0,0-7.419.27-6.635-5.093C2422.967,1060.279,2424.988,1058.943,2426.857,1059.194Z" transform="translate(-2381.647 -1001.121)" fill="#35488b"/>
      <path id="Tracé_106" data-name="Tracé 106" d="M2437.863,1072.714l.331,2.172,1.451,1.651-2.173.331-1.65,1.451-.332-2.172-1.451-1.651,2.172-.331Z" transform="translate(-2389.07 -1010.012)" fill="#fff"/>
      <path id="Tracé_107" data-name="Tracé 107" d="M2469.26,1505.451l23.532,10.217-.073,45.107-8.772,4.742Z" transform="translate(-2412.18 -1293.943)" fill="#2c3a64"/>
      <path id="Tracé_108" data-name="Tracé 108" d="M2402.022,1505.451s20.418,10.454,19.864,16.96c-.665,7.8-8.813,44.158-8.813,44.158l-9.131-4.424Z" transform="translate(-2368.063 -1293.943)" fill="#2c3a64"/>
      <path id="Tracé_109" data-name="Tracé 109" d="M2419.394,1502.207l.48-3.984-21.819-22.338,1.364,10.167Z" transform="translate(-2365.46 -1274.544)" fill="#fff"/>
      <path id="Tracé_110" data-name="Tracé 110" d="M2488.711,1500.274v-2.265l-25.67-16.02,2.138,8.068Z" transform="translate(-2408.099 -1278.549)" fill="#fff"/>
      <path id="Tracé_111" data-name="Tracé 111" d="M2422.544,1107.02l1.747,5.461,5.49,1.657-4.655,3.349.12,5.733-4.624-3.391-5.415,1.886,1.8-5.445-3.467-4.568,5.734.026Z" transform="translate(-2375.618 -1032.521)" fill="#ffe0b3"/>
    </g>
    <g id="Groupe_22" data-name="Groupe 22" transform="translate(195.194 487.7)">
      <path id="Tracé_112" data-name="Tracé 112" d="M451.1,934.363s-14.826,1.965-18.715,12.042-8.371,79.855,0,89.089c0,0,.539-8.709,1.272-10.532,0,0,1.645,17.75,10.03,21.362S484.1,993.355,484.1,993.355,491.937,931.2,451.1,934.363Z" transform="translate(-378.582 -934.247)" fill="#2c3a64"/>
      <path id="Tracé_113" data-name="Tracé 113" d="M360.781,1091.775s-20.323-4.467-38.443,21.282S312.319,1185.62,301.055,1206s-16.092,52.567-16.092,52.567,44.417-5.364,64.048,9.119,51.815,0,51.815,0,25.63-166.789-19.217-177.459Z" transform="translate(-284.963 -1036.592)" fill="#7ca8f4"/>
      <path id="Tracé_114" data-name="Tracé 114" d="M560.179,1108.278c1.4-2.8,7.3-5.538,9.67-3.494,7.291,6.294,20.043,22.985,24.954,36.093,3.023,8.069-17.434,34.252-17.434,34.252l-3.368-3.1s10.164-25.451,8.047-29.861c-.977-2.035-11.323-12.365-16.927-16.689-4.361-3.364-7.128-4.182-6.756-9.678A20.081,20.081,0,0,1,560.179,1108.278Z" transform="translate(-464.328 -1045.675)" fill="#ffb27d"/>
      <path id="Tracé_115" data-name="Tracé 115" d="M537.911,1309.3s3.013,13.951,2.537,17.381c-1.659,12.02-2.25,42.575-5.179,68.044-2.207,19.179-3.762,35.841-3.154,40.443l-8.851-1.073-.118-.018s-.025-.086-.068-.247v-.007c-.007-.036-.018-.071-.029-.111-.64-2.553-4.495-18-7.2-32.461q-.284-1.518-.55-3.015c-1.5-8.5-2.486-16.3-2.031-20.47a43.128,43.128,0,0,0-.175-7.61c-1.609-18.563-9.259-56.1.562-59.915C525.159,1305.782,537.911,1309.3,537.911,1309.3Z" transform="translate(-431.787 -1179.464)" fill="#35488b"/>
      <path id="Tracé_116" data-name="Tracé 116" d="M551.143,1670.172s2.132,3.914,6.192,4.823a10.172,10.172,0,0,1,6.1,3.794,2.386,2.386,0,0,1-1.939,3.789l-20.634-.117a2.966,2.966,0,0,1-2.934-3.281c.163-1.528.333-3.307.411-4.672.169-2.979,3.4-5.656,3.4-5.656a21.172,21.172,0,0,0,3.925,1.817A14.615,14.615,0,0,0,551.143,1670.172Z" transform="translate(-450.926 -1416.242)" fill="#2c3a64"/>
      <path id="Tracé_117" data-name="Tracé 117" d="M537.911,1295.275s2.562,3.29,2.537,23.066l-27.355,43.475c-1.609-18.563-9.259-56.1.562-59.915A144.43,144.43,0,0,1,537.911,1295.275Z" transform="translate(-431.787 -1171.128)" fill="#2c3a64"/>
      <path id="Tracé_118" data-name="Tracé 118" d="M454.254,1307.632s-20.1,53.6-32.155,84.649c-.1.253-.2.5-.291.746-6.9,17.792-11.8,32.342-12.377,36.867l-9.17.725s.368-25.4,1.937-42.789l.005-.022.076-.817c.71-7.577,1.689-14.226,3.033-17.717,4.457-11.555,5.789-48.709,19.974-68.616C432.446,1290.611,454.254,1307.632,454.254,1307.632Z" transform="translate(-360.613 -1172.578)" fill="#35488b"/>
      <path id="Tracé_119" data-name="Tracé 119" d="M501.008,954.486c-.145-.24-6.178-9.781-17.457-11.684a16.68,16.68,0,0,0-19.094,14.071c-1.412,9.2.028,21.129,15.043,25.425Z" transform="translate(-402.457 -939.711)" fill="#2c3a64"/>
      <g id="Groupe_21" data-name="Groupe 21" transform="translate(70.074 12.158)">
        <path id="Tracé_120" data-name="Tracé 120" d="M522.906,1052.113l-16.992,10.094-4.295-11.961a37.433,37.433,0,0,0,2.542-11.331,46.489,46.489,0,0,0-.274-10.053l14.776,6.417a27.2,27.2,0,0,0-.362,3.312,23.861,23.861,0,0,0,.735,7.642A10.619,10.619,0,0,0,522.906,1052.113Z" transform="translate(-497.192 -1008.485)" fill="#ffb27d"/>
        <path id="Tracé_121" data-name="Tracé 121" d="M523.887,1064.8c-8.151.3-14.875-7.318-14.875-7.318l14.14-.324A23.858,23.858,0,0,0,523.887,1064.8Z" transform="translate(-502.042 -1027.048)" fill="#ea9c68"/>
        <path id="Tracé_122" data-name="Tracé 122" d="M514.245,1002.567s-15.959,5.318-22.379-7.233c-6.928-13.545-.945-24.115,4.523-25.15,10.9-2.064,17.556,1.721,19.769,6.028S523.056,999.712,514.245,1002.567Z" transform="translate(-488.742 -969.604)" fill="#ffb27d"/>
        <path id="Tracé_123" data-name="Tracé 123" d="M542.852,1040.736s.786,1.631,5.008.418c0,0,3.545-1.017,3.016-2.884A11.844,11.844,0,0,0,542.852,1040.736Z" transform="translate(-524.245 -1014.63)" fill="#fff"/>
      </g>
      <path id="Tracé_124" data-name="Tracé 124" d="M453.676,1169.811l-.1-58.96-1.1-8.074a9.572,9.572,0,0,1,5.767-10.092c3.633-1.5,6.286-1.845,10.9-2.826,2.826,2.6,8.363,6.286,14.187,5.132,4.383-.865,5.248-3.229,5.017-5.767,1.153.115,2.134.23,3.114.346a12.971,12.971,0,0,1,11.016,10.785c1.441,8.881,2,42.853,2.924,68.48C505.971,1184.6,451.6,1178.52,453.676,1169.811Z" transform="translate(-394.819 -1035.932)" fill="#f99746"/>
      <path id="Tracé_125" data-name="Tracé 125" d="M496.759,962.813s1.513,14.971-12.69,20.276c-5.647,2.109-8.587-20.757,3.213-25.322s23.438.857,24.829,8.838.331,9.646.331,9.646S506.919,961.066,496.759,962.813Z" transform="translate(-412.363 -948.585)" fill="#2c3a64"/>
      <path id="Tracé_126" data-name="Tracé 126" d="M403.179,1670.093s1.964,3.993,6.024,4.9a10.172,10.172,0,0,1,6.1,3.794,2.386,2.386,0,0,1-1.939,3.789l-20.634-.117a2.967,2.967,0,0,1-2.934-3.281c.162-1.528.333-3.307.411-4.672.17-2.979,3.4-5.656,3.4-5.656a21.17,21.17,0,0,0,3.925,1.817A15.042,15.042,0,0,0,403.179,1670.093Z" transform="translate(-353.733 -1416.242)" fill="#2c3a64"/>
      <path id="Tracé_127" data-name="Tracé 127" d="M422.806,1098.42c-1.761-2.355-7.381.842-7.381.842-6.549,8.892-23.673,31.367-25.226,47.81-.911,9.644,25.247,28.572,25.247,28.572l1.361-5.994s-14.544-21.313-12.2-24.609,20.325-26.344,20.325-26.344S427.986,1105.349,422.806,1098.42Z" transform="translate(-353.996 -1041.398)" fill="#ffb27d"/>
      <path id="Tracé_128" data-name="Tracé 128" d="M461.681,1303.787s6.746-2.915,8.969-.482,6.691,7.658,2.882,7.148-6.243-1.885-7.3-1.462-4.021,3.28-6.877.106S461.681,1303.787,461.681,1303.787Z" transform="translate(-398.822 -1175.76)" fill="#ffb27d"/>
      <path id="Tracé_129" data-name="Tracé 129" d="M586.888,1297.265s-8.15-1.162-9.428,1.318-2.862,8.628.138,7.369,4.685-2.921,5.643-2.809,4.011,1.791,5.643-1.435S586.888,1297.265,586.888,1297.265Z" transform="translate(-475.843 -1172.255)" fill="#ffb27d"/>
      <path id="Tracé_130" data-name="Tracé 130" d="M440.325,1094.722s-14.349,2.209-22.753,20.686c0,0,3.791,14.722,19.967,13.768l11.086-15.825Z" transform="translate(-371.971 -1039.539)" fill="#f99746"/>
      <path id="Tracé_131" data-name="Tracé 131" d="M567.866,1091.543s8.746,1.126,13.931,7.653a46.681,46.681,0,0,1,7.242,12.606s.447,15.2-14.305,16.629S567.866,1091.543,567.866,1091.543Z" transform="translate(-469.203 -1037.453)" fill="#f99746"/>
      <path id="Tracé_132" data-name="Tracé 132" d="M537.363,1153.081l1.165-19.544-6.26,4.127L529,1125.829l1.17,18.642,4.879-4.283Z" transform="translate(-445.085 -1059.949)" fill="#fff"/>
      <path id="Tracé_133" data-name="Tracé 133" d="M494.637,1077.341s-5.349,2.812-5.922,5.975,16.593,6.113,16.593,6.113S497.286,1077.144,494.637,1077.341Z" transform="translate(-418.641 -1028.134)" fill="#7ca8f4"/>
      <path id="Tracé_134" data-name="Tracé 134" d="M542.487,1081.282,537,1091.924s12.055-3.829,9.979-7.658C544.744,1080.152,542.487,1081.282,542.487,1081.282Z" transform="translate(-450.329 -1030.628)" fill="#7ca8f4"/>
      <path id="Tracé_135" data-name="Tracé 135" d="M529.428,1105.194a2.6,2.6,0,1,1,2.6,2.6A2.6,2.6,0,0,1,529.428,1105.194Z" transform="translate(-445.363 -1044.703)" fill="#fff"/>
    </g>
  </g>
</svg>
