<svg xmlns="http://www.w3.org/2000/svg" viewBox="0 0 636.24 1128.29"><defs><style>.cls-1,.cls-5{fill:#fff;}.cls-2{fill:#cbcaca;}.cls-3{fill:#f4f4f4;}.cls-4{fill:#8c8c8d;}.cls-5{font-size:178.32px;font-family:Ikaros-Regular, Ikaros Sans;}.cls-6{letter-spacing:-0.04em;}.cls-7{letter-spacing:-0.05em;}.cls-8{letter-spacing:-0.04em;}</style></defs><title>Fichier 12</title><g id="Calque_2" data-name="Calque 2"><g id="Calque_1-2" data-name="Calque 1"><g id="logos"><polygon class="cls-1" points="17.92 592.95 318.12 519.87 318.12 0 17.92 592.95"/><polygon class="cls-2" points="318.12 0 318.12 519.87 618.31 592.95 318.12 0"/><polygon class="cls-3" points="17.92 612.62 318.12 747.83 318.12 539.54 17.92 612.62"/><polygon class="cls-4" points="618.31 612.62 318.12 747.83 318.12 539.54 618.31 612.62"/><path class="cls-4" d="M77,348.84s-61.61,35.24-38.47,56.4c21.39,19.56,110.3,37.11,251.29.27,203.93-53.28,273.9-121.13,291.37-148.14s-102-16-102-16l-1.06,2.21s101-5.65,92,7.88c-32,48.19-195.44,108.56-273.39,133.07-78.75,24.77-177.53,33.11-220.3,24.8-41.63-8.08-25.1-29.76-16.2-39.44,8.74-9.51,17.53-19,17.53-19Z"/><text class="cls-5" transform="translate(0 956.21)"><tspan class="cls-6">E</tspan><tspan x="85.95" y="0">XO</tspan><tspan class="cls-7" x="331.49" y="0">R</tspan><tspan class="cls-8" x="435.63" y="0">D</tspan><tspan x="543.52" y="0">E</tspan></text></g></g></g></svg>